<?xml version="1.0" encoding="utf-8"?>
<!-- Generator: Adobe Illustrator 23.0.3, SVG Export Plug-In . SVG Version: 6.00 Build 0)  -->
<svg version="1.1" id="Слой_1" xmlns="http://www.w3.org/2000/svg" xmlns:xlink="http://www.w3.org/1999/xlink" x="0px" y="0px"
	 viewBox="0 0 28.3 28.3" style="enable-background:new 0 0 28.3 28.3;" xml:space="preserve">
<g id="Page-1">
	<g>
		<path id="Shape" d="M24.6,2.9v-1c0-1-0.8-1.9-1.9-1.9c-1,0-1.9,0.8-1.9,1.9v0.9h-1.9V1.9c0-1-0.8-1.9-1.9-1.9
			c-1,0-1.9,0.8-1.9,1.9v0.9h-1.9V1.9c0-1-0.8-1.9-1.9-1.9S9.4,0.8,9.4,1.9v0.9H7.6V1.9c0-1-0.8-1.9-1.9-1.9S3.8,0.8,3.8,1.9v1
			C1.6,3.1,0,4.9,0,7.1v17c0,2.3,1.9,4.2,4.3,4.3h19.8c2.3,0,4.2-1.9,4.3-4.3v-17C28.3,4.9,26.7,3.1,24.6,2.9z M21.7,1.9
			c0-0.5,0.4-0.9,0.9-0.9c0.5,0,0.9,0.4,0.9,0.9v2.8c0,0.5-0.4,0.9-0.9,0.9c-0.5,0-0.9-0.4-0.9-0.9V1.9z M16.1,1.9
			c0-0.5,0.4-0.9,0.9-0.9S18,1.4,18,1.9v2.8c0,0.5-0.4,0.9-0.9,0.9s-0.9-0.4-0.9-0.9V1.9z M10.4,1.9c0-0.5,0.4-0.9,0.9-0.9
			c0.5,0,0.9,0.4,0.9,0.9v2.8c0,0.5-0.4,0.9-0.9,0.9c-0.5,0-0.9-0.4-0.9-0.9V1.9z M4.7,1.9c0-0.5,0.4-0.9,0.9-0.9s0.9,0.4,0.9,0.9
			v2.8c0,0.5-0.4,0.9-0.9,0.9S4.7,5.2,4.7,4.7V1.9z M24.1,27.4H4.3c-1.8,0-3.3-1.5-3.3-3.3V8.5h26.5v15.6
			C27.4,25.9,25.9,27.4,24.1,27.4z M27.4,7.6H0.9V7.1c0-1.6,1.2-3,2.8-3.3v0.9c0,1,0.8,1.9,1.9,1.9s1.9-0.8,1.9-1.9V3.8h1.9v0.9
			c0,1,0.8,1.9,1.9,1.9s1.9-0.8,1.9-1.9V3.8h1.9v0.9c0,1,0.8,1.9,1.9,1.9c1,0,1.9-0.8,1.9-1.9V3.8h1.9v0.9c0,1,0.8,1.9,1.9,1.9
			c1,0,1.9-0.8,1.9-1.9V3.8c1.6,0.2,2.8,1.6,2.8,3.3V7.6z"/>
		<path d="M14.2,9.4c-4.7,0-8.5,3.8-8.5,8.5s3.8,8.5,8.5,8.5s8.5-3.8,8.5-8.5C22.7,13.3,18.9,9.5,14.2,9.4z M14.2,25.5
			c-3,0-5.7-1.7-6.9-4.4S6.5,15.2,8.5,13C8.9,13.3,9,14.1,9,15.1c0,1.1,0.6,2.2,1.6,2.9c-0.2,0-0.4,0-0.6,0
			c-0.5-0.1-1.1,0.2-1.3,0.7c-0.3,0.7,0.3,1.8,0.9,2.5c0.2,0.3,0.4,0.6,0.6,0.9c0.6,1.1,1.3,2.6,4,2.6c3.5,0,5.7-3,5.7-4.3
			c0-0.5-0.1-1-0.3-1.4c0.9-1.1,1-2.6,0.1-3.7c-0.9-1.1-2.5-1.3-3.7-0.6c-1.2,0.7-1.7,2.3-1.1,3.5c-0.7-0.5-1.1-1.2-1.2-2.1
			c0-0.5-0.3-1-0.8-1.1c-0.7-0.3-1.4-0.1-1.9,0.3c-0.3,0.4-0.5,0.9-0.5,1.4c-0.4-0.4-0.6-1-0.6-1.6c0-1,0-2.1-0.8-2.8
			c2.5-2.2,6.2-2.5,9.1-0.7s4.2,5.3,3.2,8.5S17.5,25.5,14.2,25.5L14.2,25.5z M15.6,17c0-1,0.8-1.9,1.9-1.9c1,0,1.9,0.8,1.9,1.9
			c0,1-0.8,1.9-1.9,1.9C16.4,18.9,15.6,18.1,15.6,17z M17.5,19.8c0.5,0,0.9-0.1,1.3-0.3c0.1,0.3,0.1,0.5,0.1,0.8
			c0,0.7-1.7,3.3-4.7,3.3c-2.1,0-2.7-1-3.2-2c-0.2-0.4-0.4-0.8-0.7-1.1c-0.6-0.6-0.8-1.2-0.7-1.4c0-0.1,0.2-0.1,0.4-0.1
			c0.4,0,0.7,0,1.1,0.1c0.5,1.1,1.4,2.1,2.5,2.6c0.2,0.1,0.5,0.1,0.6-0.2c0.1-0.2,0.1-0.5-0.2-0.6c-1.2-0.6-2.1-1.8-2.4-3.1
			c-0.1-0.6-0.1-1.2,0.1-1.8c0.3-0.2,0.6-0.2,0.9-0.1c0.1,0,0.2,0.1,0.2,0.3C12.8,17.3,13.9,19.8,17.5,19.8L17.5,19.8z"/>
	</g>
</g>
</svg>
