<svg height="512" viewBox="0 0 60 60" width="512" xmlns="http://www.w3.org/2000/svg"><g id="Page-1" fill="none" fill-rule="evenodd"><g id="028---Due-Date" fill="rgb(0,0,0)" fill-rule="nonzero"><path id="Shape" d="m52 6.059v-2.059c0-2.209139-1.790861-4-4-4s-4 1.790861-4 4v2h-4v-2c0-2.209139-1.790861-4-4-4s-4 1.790861-4 4v2h-4v-2c0-2.209139-1.790861-4-4-4s-4 1.790861-4 4v2h-4v-2c0-2.209139-1.790861-4-4-4s-4 1.790861-4 4v2.059c-4.55173838.51347134-7.99379119 4.3603956-8 8.941v36c.00551113 4.9682782 4.03172183 8.9944889 9 9h42c4.9682782-.0055111 8.9944889-4.0317218 9-9v-36c-.0062088-4.5806044-3.4482616-8.42752866-8-8.941zm-6-2.059c0-1.1045695.8954305-2 2-2s2 .8954305 2 2v6c0 1.1045695-.8954305 2-2 2s-2-.8954305-2-2zm-12 0c0-1.1045695.8954305-2 2-2s2 .8954305 2 2v6c0 1.1045695-.8954305 2-2 2s-2-.8954305-2-2zm-12 0c0-1.1045695.8954305-2 2-2s2 .8954305 2 2v6c0 1.1045695-.8954305 2-2 2s-2-.8954305-2-2zm-12 0c0-1.1045695.8954305-2 2-2s2 .8954305 2 2v6c0 1.1045695-.8954305 2-2 2s-2-.8954305-2-2zm41 54h-42c-3.86416566-.0044086-6.99559136-3.1358343-7-7v-33h56v33c-.0044086 3.8641657-3.1358343 6.9955914-7 7zm7-42h-56v-1c.00664729-3.4756199 2.56039046-6.42093699 6-6.92v1.92c0 2.209139 1.790861 4 4 4s4-1.790861 4-4v-2h4v2c0 2.209139 1.790861 4 4 4s4-1.790861 4-4v-2h4v2c0 2.209139 1.790861 4 4 4s4-1.790861 4-4v-2h4v2c0 2.209139 1.790861 4 4 4s4-1.790861 4-4v-1.92c3.4396095.49906301 5.9933527 3.4443801 6 6.92z"/><path id="Shape" d="m30 20c-9.9411255 0-18 8.0588745-18 18s8.0588745 18 18 18 18-8.0588745 18-18c-.0115721-9.9363282-8.0636718-17.9884279-18-18zm0 34c-6.273376.0083713-11.9709651-3.6558196-14.5657559-9.3674198-2.5947907-5.7116003-1.6064166-12.4132369 2.5267559-17.1325802.975.716 1.039 2.24 1.039 4.5.087269 2.4249637 1.3024116 4.6699259 3.285 6.069-.4268878-.0447549-.8557743-.0677846-1.285-.069-1.1291223-.147178-2.2238943.4523593-2.708 1.483-.651 1.575.535 3.758 2 5.224.4792438.5673817.8770708 1.1987889 1.182 1.876 1.187 2.286 2.811 5.417 8.526 5.417 7.343 0 12-6.329 12-9-.0206745-1.0243174-.2008357-2.0391578-.534-3.008 1.9902948-2.2239191 2.0434803-5.5725861.1248146-7.8585896-1.9186656-2.2860035-5.2258249-2.8142995-7.7611802-1.2397952-2.5353552 1.5745043-3.5280486 4.7730913-2.3296344 7.5063848-1.4236567-1.0421615-2.3335255-2.6435304-2.5-4.4.0209882-1.0574982-.6281398-2.0129473-1.619-2.383-1.3833657-.5429109-2.9530503-.2833446-4.088.676-.6524412.8847587-.9951152 1.9598763-.975 3.059-.8286247-.9221781-1.296623-2.1124137-1.318-3.352 0-2.069 0-4.549-1.613-5.94 5.3229785-4.7324971 13.1343703-5.3736991 19.1578349-1.5725804s8.8065797 11.1280043 6.8257311 17.9695588-8.2480241 11.5480918-15.370566 11.5430216zm3-18c0-2.209139 1.790861-4 4-4s4 1.790861 4 4-1.790861 4-4 4-4-1.790861-4-4zm4 6c.9645701-.0000704 1.9147312-.2340935 2.769-.682.1444755.5493141.2220378 1.114075.231 1.682 0 1.5-3.641 7-10 7-4.5 0-5.644-2.2-6.751-4.338-.3899867-.8637892-.9100205-1.6627257-1.542-2.369-1.287-1.288-1.744-2.617-1.567-3.044.076-.184.494-.249.86-.249.7534449-.0159271 1.5054982.0718966 2.235.261 1.1008372 2.3902877 2.9486277 4.3581056 5.265 5.607.4794043.2737673 1.0899643.1072509 1.364-.372.2737673-.4794043.1072509-1.0899643-.372-1.364-2.6062204-1.3332337-4.465593-3.7783051-5.054-6.646-.3172843-1.2556625-.2244225-2.5799073.265-3.779.5600597-.3828481 1.2700953-.4729051 1.908-.242.2436642.0582928.4086735.2852336.389.535 0 2.61 2.444 8 10 8z"/></g></g></svg>