<?xml version="1.0" encoding="utf-8"?>
<!-- Generator: Adobe Illustrator 23.0.3, SVG Export Plug-In . SVG Version: 6.00 Build 0)  -->
<svg version="1.1" id="Layer_1" xmlns="http://www.w3.org/2000/svg" xmlns:xlink="http://www.w3.org/1999/xlink" x="0px" y="0px"
	 viewBox="0 0 28.3 24.4" style="enable-background:new 0 0 28.3 24.4;" xml:space="preserve">
<g>
	<g>
		<path d="M28.2,5.8c-0.3-1.4-1-2.6-2.1-3.7c-2.9-2.9-7.6-2.9-10.5,0c-0.9,0.9-2.1,0.7-2.8,0c-2.9-2.9-7.6-2.9-10.5,0
			C0.7,3.7,0,5.5,0,7.6c0,1.8,0.6,3.7,1.8,5.7c0.2,0.3,0.5,0.4,0.8,0.2c0.3-0.2,0.4-0.5,0.2-0.8C1.2,10-0.1,6,3,3
			c2.5-2.5,6.5-2.5,9,0c1.2,1.2,3.2,1.2,4.4,0c2.5-2.5,6.5-2.5,9,0c1.8,1.8,2.3,4,1.6,6.6c-1,3.7-4.1,7.1-5.9,8.8
			c-2.4,2.4-5.2,4.3-6.9,4.8c-1.9-0.6-5.6-3.1-8.6-6.5c-0.2-0.2-0.6-0.3-0.8,0c-0.2,0.2-0.3,0.6,0,0.8c2.9,3.3,6.9,6.3,9.3,6.9
			c0,0,0.1,0,0.1,0c0,0,0.1,0,0.1,0c1.9-0.5,4.9-2.5,7.5-5.1c1.8-1.8,5.1-5.4,6.2-9.4C28.4,8.4,28.4,7.1,28.2,5.8L28.2,5.8z"/>
		<path d="M5.9,13.5c-0.2,0.1-0.3,0.4-0.2,0.6c0,0.1,0.5,1.9,1.9,2.8c0.6,0.3,1.2,0.5,1.9,0.4c0,0.1,0,0.2,0.1,0.2
			c0.1,0.1,0.2,0.2,0.4,0.2c0,0,1,0.1,2-0.1c1-0.2,1.7-0.6,2.2-1.2c0.5,0.6,1.2,1,2.2,1.2c0.4,0.1,0.8,0.1,1.2,0.1
			c0.5,0,0.8,0,0.8-0.1c0.1,0,0.3-0.1,0.4-0.2c0-0.1,0.1-0.1,0.1-0.2c0.7,0.1,1.3-0.1,1.9-0.4c1.5-0.9,1.9-2.7,1.9-2.8
			c0.1-0.2,0-0.4-0.2-0.6c-0.2-0.1-0.4-0.1-0.6,0c-1.5,0.9-2.3,0.2-3.3-0.7c-1-0.9-2.3-2-4.3-0.6c-2-1.4-3.3-0.3-4.3,0.6
			c-1,0.9-1.8,1.6-3.3,0.7C6.3,13.4,6.1,13.4,5.9,13.5L5.9,13.5z M8.7,14.9c0.7-0.2,1.3-0.7,1.9-1.2c1.1-0.9,1.8-1.5,3.3-0.4
			c0.2,0.2,0.5,0.2,0.7,0c1.5-1.2,2.2-0.6,3.3,0.4c0.6,0.5,1.1,1,1.9,1.2c0.5,0.2,0.9,0.2,1.4,0.1c-0.2,0.4-0.5,0.7-0.9,1
			c-0.5,0.3-1.1,0.4-1.8,0.2c-0.2-0.1-0.4,0-0.5,0.1c-0.1,0.1-0.2,0.3-0.2,0.5c-0.9,0-2.5-0.2-2.9-1.6c-0.1-0.2-0.3-0.4-0.5-0.4
			c-0.3,0-0.5,0.2-0.5,0.4c-0.2,0.8-0.8,1.3-1.8,1.5c-0.4,0.1-0.8,0.1-1,0.1c0-0.2,0-0.4-0.2-0.5c-0.1-0.1-0.3-0.2-0.5-0.1
			c-0.7,0.2-1.3,0.1-1.8-0.2c-0.4-0.2-0.7-0.6-0.9-1C7.8,15.1,8.2,15,8.7,14.9L8.7,14.9z"/>
		<path d="M9.5,10.6c1,0,1.8-0.8,1.8-1.8V6.9c0-1-0.8-1.8-1.8-1.8H8.2c-0.3,0-0.6,0.2-0.6,0.6v4.4c0,0.3,0.2,0.6,0.6,0.6H9.5z
			 M8.8,6.2h0.7c0.4,0,0.7,0.3,0.7,0.7v1.9c0,0.4-0.3,0.7-0.7,0.7H8.8V6.2z"/>
		<path d="M15.4,10.6c0.3,0,0.6-0.2,0.6-0.6V6.9c0-1-0.8-1.8-1.8-1.8s-1.8,0.8-1.8,1.8v3.2c0,0.3,0.2,0.6,0.6,0.6s0.6-0.2,0.6-0.6V9
			h1.4h0v1.1C14.9,10.4,15.1,10.6,15.4,10.6z M14.9,7.9h-1.4v-1c0-0.4,0.3-0.7,0.7-0.7c0.4,0,0.7,0.3,0.7,0.7L14.9,7.9z"/>
		<path d="M18.9,10.6c1,0,1.8-0.8,1.8-1.8V6.9c0-1-0.8-1.8-1.8-1.8h-1.2c-0.3,0-0.6,0.2-0.6,0.6v4.4c0,0.3,0.2,0.6,0.6,0.6H18.9z
			 M18.2,6.2h0.7c0.4,0,0.7,0.3,0.7,0.7v1.9c0,0.4-0.3,0.7-0.7,0.7h-0.7V6.2z"/>
		<path d="M3.6,14.6L3.6,14.6c-0.3,0-0.6,0.2-0.6,0.6c0,0.3,0.2,0.6,0.6,0.6s0.6-0.2,0.6-0.6C4.2,14.8,3.9,14.6,3.6,14.6z"/>
	</g>
</g>
</svg>
