<svg id="Layer_1" enable-background="new 0 0 511.986 511.986" height="512" viewBox="0 0 511.986 511.986" width="512" xmlns="http://www.w3.org/2000/svg"><g><g><path d="m509.042 141.556c-5.307-24.748-17.814-47.081-37.174-66.379-52.468-52.3-137.839-52.301-190.305 0-16.606 16.554-38.74 12.357-51.138 0-52.466-52.3-137.837-52.301-190.305 0-27.22 27.133-40.711 59.859-40.1 97.267.522 31.958 11.373 66.875 32.25 103.783 2.72 4.808 8.82 6.499 13.628 3.781 4.807-2.719 6.499-8.82 3.78-13.627-28.463-50.319-50.775-121.879 4.563-177.04 44.682-44.539 117.385-44.541 162.066 0 22.254 22.184 57.122 22.184 79.376 0 44.683-44.54 117.384-44.539 162.066 0 31.862 31.761 41.541 72.073 28.769 119.817-17.975 67.192-73.958 128.981-105.729 159.833-44.093 42.817-93.718 77.207-124.786 86.643-34.657-10.638-100.799-56.801-154.814-118.136-3.649-4.146-9.969-4.546-14.114-.896s-4.545 9.969-.896 14.114c52.724 59.867 124.619 113.597 167.236 124.979.845.226 1.713.339 2.58.339s1.735-.113 2.58-.338c34.389-9.185 87.83-45.438 136.147-92.357 33.25-32.289 91.9-97.181 111.117-169.013 6.928-25.895 8.005-50.379 3.203-72.77z"/><path d="m107.036 280.35c-3.233 2.382-4.729 6.467-3.796 10.373.338 1.418 8.592 34.902 35.101 50.505 10.296 6.061 21.761 8.603 34.218 7.603.241 1.48.813 2.902 1.693 4.153 1.562 2.218 3.958 3.707 6.638 4.125.702.109 17.387 2.635 35.815-.98 17.319-3.397 30.593-10.989 39.29-22.318 8.698 11.329 21.972 18.921 39.291 22.318 7.619 1.495 14.94 1.939 20.957 1.939 8.536 0 14.447-.896 14.858-.959 2.68-.418 5.076-1.907 6.638-4.125.88-1.25 1.452-2.673 1.693-4.153 12.457.999 23.923-1.543 34.218-7.603 26.509-15.603 34.763-49.087 35.101-50.505.933-3.906-.563-7.991-3.796-10.373-3.233-2.381-7.577-2.598-11.032-.549-27.41 16.257-41.698 3.886-59.788-11.779-18.695-16.188-41.725-36.124-78.14-11.5-36.418-24.627-59.445-4.689-78.139 11.5-18.089 15.665-32.378 28.038-59.788 11.779-3.454-2.049-7.799-1.833-11.032.549zm50.368 24.668c13.257-4.309 23.57-13.24 33.545-21.877 19.164-16.596 31.823-27.561 58.88-6.371 3.621 2.837 8.711 2.837 12.332 0 27.054-21.19 39.716-10.226 58.881 6.371 9.974 8.637 20.288 17.568 33.545 21.877 8.404 2.731 16.961 3.242 25.821 1.509-4.015 6.525-9.563 13.17-16.988 17.514-9.453 5.529-20.32 6.466-33.218 2.86-3.339-.933-6.916-.072-9.464 2.272-2.462 2.265-3.622 5.605-3.109 8.896-15.938.239-45.127-3.076-51.951-29.505-1.14-4.415-5.123-7.5-9.683-7.5-4.561 0-8.543 3.085-9.683 7.5-3.877 15.02-14.67 24.127-32.995 27.845-6.926 1.405-13.67 1.721-18.952 1.645.507-3.286-.654-6.619-3.112-8.881-2.549-2.345-6.126-3.205-9.464-2.272-12.899 3.605-23.766 2.671-33.218-2.86-7.426-4.344-12.975-10.991-16.989-17.514 8.861 1.734 17.418 1.223 25.822-1.509z"/><path d="m170.993 228.264c17.921 0 32.501-14.58 32.501-32.5v-35c0-17.92-14.58-32.5-32.501-32.5h-22.5c-5.522 0-10 4.477-10 10v80c0 5.523 4.478 10 10 10zm-12.5-79.999h12.5c6.893 0 12.501 5.607 12.501 12.5v35c0 6.893-5.608 12.5-12.501 12.5h-12.5z"/><path d="m278.495 228.264c5.522 0 10-4.477 10-10v-57.5c0-17.92-14.58-32.5-32.501-32.5s-32.5 14.58-32.5 32.5v57.5c0 5.523 4.478 10 10 10s10-4.477 10-10v-20.001h25 .001v20.001c0 5.523 4.478 10 10 10zm-10.001-50.001h-25v-17.499c0-6.893 5.607-12.5 12.5-12.5s12.501 5.607 12.501 12.5z"/><path d="m340.996 228.264c17.921 0 32.501-14.58 32.501-32.5v-35c0-17.92-14.58-32.5-32.501-32.5h-22.5c-5.522 0-10 4.477-10 10v80c0 5.523 4.478 10 10 10zm-12.5-79.999h12.5c6.893 0 12.501 5.607 12.501 12.5v35c0 6.893-5.608 12.5-12.501 12.5h-12.5z"/><path d="m65.456 299.066h-.008c-5.522 0-9.996 4.477-9.996 10s4.481 10 10.004 10 10-4.477 10-10-4.477-10-10-10z"/></g></g></svg>