<?xml version="1.0" encoding="utf-8"?>
<!-- Generator: Adobe Illustrator 23.0.3, SVG Export Plug-In . SVG Version: 6.00 Build 0)  -->
<svg version="1.1" id="Слой_1" xmlns="http://www.w3.org/2000/svg" xmlns:xlink="http://www.w3.org/1999/xlink" x="0px" y="0px"
	 viewBox="0 0 50 51" style="enable-background:new 0 0 50 51;" xml:space="preserve">
<path d="M25,17.1c-4.7,0-8.4,3.8-8.4,8.4c0,4.7,3.7,8.4,8.4,8.4c4.6,0,8.4-3.7,8.4-8.4C33.4,20.9,29.6,17.1,25,17.1z M25,30.9
	c-3,0-5.5-2.4-5.5-5.5c0-3,2.4-5.4,5.5-5.4c3,0,5.4,2.4,5.4,5.4C30.4,28.5,28,30.9,25,30.9z M35.6,16.8c0-1.1-0.9-2-2-2s-2,0.9-2,2
	c0,1.1,0.9,2,2,2S35.6,17.9,35.6,16.8z M41.1,18.7c-0.1-2.6-0.7-4.9-2.6-6.8c-1.9-1.9-4.2-2.5-6.8-2.6c-2.7-0.1-10.8-0.1-13.4,0
	c-2.6,0.1-4.9,0.7-6.8,2.6c-1.9,1.9-2.5,4.2-2.6,6.8c-0.1,2.7-0.1,10.8,0,13.4c0.1,2.6,0.7,4.9,2.6,6.8c2,1.9,4.2,2.5,6.8,2.6
	c2.7,0.1,10.8,0.1,13.4,0c2.6-0.1,4.9-0.7,6.8-2.6c1.9-2,2.5-4.2,2.6-6.8C41.3,29.5,41.3,21.4,41.1,18.7z M37.7,35
	c-0.5,1.5-1.7,2.5-3.1,3.1c-2.2,0.9-7.3,0.7-9.6,0.7c-2.4,0-7.5,0.2-9.6-0.7c-1.5-0.6-2.5-1.7-3.1-3.1c-0.9-2.1-0.7-7.2-0.7-9.6
	c0-2.3-0.2-7.4,0.7-9.6c0.6-1.4,1.7-2.5,3.1-3.1c2.1-0.9,7.2-0.7,9.6-0.7c2.3,0,7.4-0.2,9.6,0.7c1.4,0.5,2.5,1.7,3.1,3.1
	c0.9,2.2,0.7,7.3,0.7,9.6C38.3,27.8,38.5,32.9,37.7,35z"/>
</svg>
