<svg id="Capa_1" enable-background="new 0 0 511.964 511.964" height="512" viewBox="0 0 511.964 511.964" width="512" xmlns="http://www.w3.org/2000/svg"><g id="XMLID_3076_"><g id="XMLID_34_"><g id="XMLID_36_"><g id="XMLID_2121_"><path id="XMLID_2124_" d="m466.896 114.86c-1.455-1.454-2.947-2.885-4.462-4.285.691-9.143-1.835-18.373-7.248-25.892 8.763-12.172 9.987-28.828 2.185-42.341-7.801-13.513-22.832-20.784-37.762-19.278-6.16-13.676-19.974-23.064-35.577-23.064s-29.417 9.388-35.576 23.063c-14.928-1.501-29.961 5.766-37.761 19.278-6.397 11.079-6.717 24.267-1.799 35.368-19.439 6.516-37.407 16.875-52.86 30.505-22.268-19.685-49.361-32.341-78.919-36.776-32.105-4.815-64.283.403-93.057 15.097-4.918 2.511-6.87 8.535-4.358 13.454 2.511 4.918 8.533 6.87 13.454 4.358 51.928-26.517 114.541-16.609 155.805 24.655 1.953 1.952 4.512 2.929 7.071 2.929s5.119-.977 7.071-2.929c12.442-12.443 27.109-22.233 43.143-28.932-1.752 8.981-.391 18.572 4.449 26.953 7.801 13.513 22.837 20.782 37.761 19.278 6.16 13.676 19.973 23.063 35.576 23.063s29.417-9.388 35.576-23.063c13.378 1.35 26.829-4.371 35.095-15.3 50.323 52.434 49.677 136.024-1.949 187.651l-156.815 156.818c-22.005 22.005-57.808 22.005-79.812 0l-15.106-15.106c3.175-2.757 5.956-6.043 8.15-9.843 7.802-13.513 6.579-30.169-2.185-42.342 8.764-12.172 9.987-28.829 2.186-42.341-7.801-13.514-22.838-20.781-37.762-19.279-6.16-13.675-19.973-23.063-35.576-23.063s-29.417 9.388-35.576 23.063c-4.143-.417-8.29-.135-12.295.747l-28.652-28.652c-41.264-41.263-51.173-103.876-24.657-155.803 2.512-4.919.56-10.942-4.358-13.454-4.92-2.511-10.942-.559-13.454 4.358-14.693 28.774-19.913 60.952-15.096 93.056 4.916 32.761 19.931 62.495 43.422 85.986l24.269 24.269c-2.676 2.525-5.029 5.458-6.942 8.772-7.802 13.513-6.579 30.169 2.185 42.341-8.764 12.173-9.987 28.829-2.185 42.342 7.801 13.512 22.83 20.782 37.761 19.278 6.16 13.676 19.973 23.063 35.576 23.063s29.417-9.388 35.576-23.063c3.491.352 6.983.206 10.391-.37l20.183 20.183c14.901 14.901 34.475 22.352 54.048 22.352s39.147-7.451 54.048-22.352l156.816-156.816c60.087-60.084 60.087-157.85.002-217.936zm-31.599-22.287c7.421 5.779 9.464 16.292 4.752 24.452-4.711 8.16-14.836 11.647-23.552 8.11-2.858-1.159-6.091-.937-8.761.606-2.671 1.542-4.48 4.229-4.905 7.284-1.294 9.316-9.376 16.342-18.8 16.342s-17.505-7.025-18.8-16.342c-.424-3.055-2.234-5.742-4.905-7.284-1.54-.889-3.267-1.34-5-1.34-1.273 0-2.55.243-3.76.734-8.716 3.539-18.84.05-23.552-8.11-4.712-8.161-2.669-18.672 4.752-24.451 2.433-1.895 3.856-4.806 3.856-7.89s-1.423-5.996-3.856-7.89c-7.421-5.779-9.464-16.29-4.751-24.452 4.711-8.161 14.835-11.646 23.551-8.11 2.857 1.16 6.09.937 8.761-.605s4.48-4.229 4.905-7.284c1.294-9.316 9.376-16.342 18.8-16.342s17.505 7.025 18.8 16.342c.424 3.055 2.234 5.742 4.905 7.284s5.903 1.766 8.761.605c8.715-3.535 18.841-.051 23.552 8.11s2.668 18.673-4.752 24.451c-2.433 1.895-3.856 4.806-3.856 7.89s1.422 5.995 3.855 7.89zm-266.999 356.058c-2.857-1.16-6.091-.937-8.761.606-2.671 1.542-4.48 4.229-4.905 7.284-1.294 9.316-9.376 16.342-18.8 16.342s-17.505-7.025-18.8-16.342c-.424-3.055-2.234-5.742-4.905-7.284-1.54-.889-3.267-1.34-5-1.34-1.273 0-2.55.243-3.76.734-8.715 3.538-18.839.05-23.552-8.11-4.712-8.161-2.669-18.673 4.752-24.452 2.433-1.895 3.856-4.806 3.856-7.89s-1.423-5.996-3.856-7.89c-7.421-5.778-9.464-16.29-4.752-24.451s14.837-11.646 23.552-8.111c2.857 1.159 6.09.936 8.761-.605 2.67-1.542 4.48-4.229 4.905-7.284 1.294-9.316 9.376-16.341 18.8-16.341s17.505 7.025 18.8 16.341c.424 3.055 2.234 5.742 4.905 7.284s5.903 1.766 8.761.605c8.716-3.536 18.84-.05 23.552 8.111s2.668 18.672-4.752 24.451c-2.433 1.895-3.856 4.806-3.856 7.89 0 3.083 1.423 5.995 3.856 7.89 7.421 5.779 9.464 16.292 4.752 24.452-4.712 8.161-14.837 11.647-23.553 8.11z"/><path id="XMLID_2126_" d="m52.242 131.93c2.63 0 5.2-1.06 7.07-2.93 1.86-1.86 2.93-4.44 2.93-7.07s-1.07-5.21-2.93-7.07-4.44-2.93-7.07-2.93-5.21 1.07-7.07 2.93-2.93 4.44-2.93 7.07 1.07 5.21 2.93 7.07c1.86 1.87 4.44 2.93 7.07 2.93z"/><path id="XMLID_2127_" d="m185.699 293.608c5.523 0 10-4.477 10-10v-43.5c0-18.404-14.972-33.376-33.376-33.376-9.095 0-17.348 3.661-23.374 9.581-6.026-5.92-14.279-9.581-23.374-9.581-5.365 0-10.434 1.28-14.93 3.539-1.773-2.799-4.888-4.662-8.446-4.662-5.523 0-10 4.477-10 10v68c0 5.523 4.477 10 10 10s10-4.477 10-10v-43.5c0-7.375 6-13.376 13.376-13.376 7.356 0 13.341 5.969 13.373 13.318 0 .019-.001.038-.001.058l.004 43.5c0 5.523 4.477 10 10 10s10-4.477 10-10v-43.5c0-.019-.001-.038-.001-.058.032-7.349 6.017-13.318 13.373-13.318 7.375 0 13.376 6 13.376 13.376v43.5c0 5.522 4.477 9.999 10 9.999z"/><path id="XMLID_2128_" d="m419.954 293.608c5.523 0 10-4.477 10-10v-43.5c0-18.404-14.972-33.376-33.376-33.376-9.095 0-17.348 3.661-23.374 9.581-6.026-5.92-14.279-9.581-23.374-9.581-5.365 0-10.434 1.28-14.93 3.539-1.773-2.799-4.888-4.662-8.446-4.662-5.523 0-10 4.477-10 10v68c0 5.523 4.477 10 10 10s10-4.477 10-10v-43.5c0-7.375 6-13.376 13.376-13.376 7.354 0 13.338 5.966 13.373 13.312 0 .022-.002.043-.002.064l.005 43.5c0 5.523 4.477 10 10 10s10-4.477 10-10v-43.5c0-.022-.002-.043-.002-.064.035-7.346 6.019-13.312 13.373-13.312 7.375 0 13.376 6 13.376 13.376v43.5c.001 5.522 4.478 9.999 10.001 9.999z"/><path id="XMLID_2131_" d="m289.454 260.127v-21.037c0-18.403-14.972-33.375-33.375-33.375s-33.375 14.972-33.375 33.375v21.038c0 18.403 14.972 33.375 33.375 33.375s33.375-14.973 33.375-33.376zm-46.75 0v-21.037c0-7.375 6-13.375 13.375-13.375s13.375 6 13.375 13.375v21.038c0 7.375-6 13.375-13.375 13.375s-13.375-6.001-13.375-13.376z"/><path id="XMLID_2132_" d="m135.832 398.18c-2.63 0-5.21 1.07-7.07 2.93s-2.93 4.44-2.93 7.07 1.07 5.21 2.93 7.07 4.44 2.93 7.07 2.93 5.21-1.07 7.07-2.93 2.93-4.44 2.93-7.07-1.07-5.21-2.93-7.07-4.44-2.93-7.07-2.93z"/><path id="XMLID_2133_" d="m384.032 74.68c-2.63 0-5.21 1.07-7.07 2.93s-2.93 4.44-2.93 7.07c0 2.64 1.07 5.21 2.93 7.07 1.86 1.87 4.44 2.93 7.07 2.93s5.21-1.06 7.07-2.93c1.86-1.86 2.93-4.44 2.93-7.07s-1.07-5.21-2.93-7.07-4.44-2.93-7.07-2.93z"/></g></g></g></g></svg>