<?xml version="1.0" encoding="utf-8"?>
<!-- Generator: Adobe Illustrator 23.0.3, SVG Export Plug-In . SVG Version: 6.00 Build 0)  -->
<svg version="1.1" id="Capa_1" xmlns="http://www.w3.org/2000/svg" xmlns:xlink="http://www.w3.org/1999/xlink" x="0px" y="0px"
	 viewBox="0 0 28.3 28.3" style="enable-background:new 0 0 28.3 28.3;" xml:space="preserve">
<g id="XMLID_3076_">
	<g id="XMLID_34_">
		<g id="XMLID_36_">
			<g id="XMLID_2121_">
				<path id="XMLID_2124_" d="M25.8,6.4c-0.1-0.1-0.2-0.2-0.2-0.2c0-0.5-0.1-1-0.4-1.4c0.5-0.7,0.6-1.6,0.1-2.3s-1.3-1.2-2.1-1.1
					c-0.3-0.8-1.1-1.3-2-1.3c-0.9,0-1.6,0.5-2,1.3c-0.8-0.1-1.7,0.3-2.1,1.1c-0.4,0.6-0.4,1.3-0.1,2C16,4.7,15,5.2,14.2,6
					c-1.2-1.1-2.7-1.8-4.4-2C8,3.7,6.2,4,4.7,4.8C4.4,4.9,4.3,5.3,4.4,5.5c0.1,0.3,0.5,0.4,0.7,0.2c2.9-1.5,6.3-0.9,8.6,1.4
					c0.1,0.1,0.2,0.2,0.4,0.2s0.3-0.1,0.4-0.2c0.7-0.7,1.5-1.2,2.4-1.6c-0.1,0.5,0,1,0.2,1.5c0.4,0.7,1.3,1.2,2.1,1.1
					c0.3,0.8,1.1,1.3,2,1.3c0.9,0,1.6-0.5,2-1.3c0.7,0.1,1.5-0.2,1.9-0.8c2.8,2.9,2.8,7.5-0.1,10.4l-8.7,8.7c-1.2,1.2-3.2,1.2-4.4,0
					l-0.8-0.8c0.2-0.2,0.3-0.3,0.5-0.5c0.4-0.7,0.4-1.7-0.1-2.3c0.5-0.7,0.6-1.6,0.1-2.3s-1.3-1.2-2.1-1.1c-0.3-0.8-1.1-1.3-2-1.3
					s-1.6,0.5-2,1.3c-0.2,0-0.5,0-0.7,0l-1.6-1.6C1,15.4,0.5,11.9,1.9,9c0.1-0.3,0-0.6-0.2-0.7c-0.3-0.1-0.6,0-0.7,0.2
					c-0.8,1.6-1.1,3.4-0.8,5.2c0.3,1.8,1.1,3.5,2.4,4.8l1.3,1.3c-0.1,0.1-0.3,0.3-0.4,0.5C3,21,3.1,21.9,3.6,22.6
					c-0.5,0.7-0.6,1.6-0.1,2.3s1.3,1.2,2.1,1.1c0.3,0.8,1.1,1.3,2,1.3s1.6-0.5,2-1.3c0.2,0,0.4,0,0.6,0l1.1,1.1
					c0.8,0.8,1.9,1.2,3,1.2s2.2-0.4,3-1.2l8.7-8.7C29.2,15.1,29.2,9.7,25.8,6.4L25.8,6.4z M24.1,5.1c0.4,0.3,0.5,0.9,0.3,1.4
					c-0.3,0.5-0.8,0.6-1.3,0.4c-0.2-0.1-0.3,0-0.5,0c-0.1,0.1-0.2,0.2-0.3,0.4c-0.1,0.5-0.5,0.9-1,0.9s-1-0.4-1-0.9
					c0-0.2-0.1-0.3-0.3-0.4c-0.1,0-0.2-0.1-0.3-0.1c-0.1,0-0.1,0-0.2,0c-0.5,0.2-1,0-1.3-0.4c-0.3-0.5-0.1-1,0.3-1.4
					c0.1-0.1,0.2-0.3,0.2-0.4c0-0.2-0.1-0.3-0.2-0.4c-0.4-0.3-0.5-0.9-0.3-1.4s0.8-0.6,1.3-0.4c0.2,0.1,0.3,0,0.5,0
					c0.1-0.1,0.2-0.2,0.3-0.4c0.1-0.5,0.5-0.9,1-0.9s1,0.4,1,0.9c0,0.2,0.1,0.3,0.3,0.4c0.1,0.1,0.3,0.1,0.5,0c0.5-0.2,1,0,1.3,0.4
					c0.3,0.5,0.1,1-0.3,1.4c-0.1,0.1-0.2,0.3-0.2,0.4C23.9,4.9,24,5,24.1,5.1z M9.3,24.8c-0.2-0.1-0.3,0-0.5,0
					c-0.1,0.1-0.2,0.2-0.3,0.4c-0.1,0.5-0.5,0.9-1,0.9c-0.5,0-1-0.4-1-0.9c0-0.2-0.1-0.3-0.3-0.4c-0.1,0-0.2-0.1-0.3-0.1
					c-0.1,0-0.1,0-0.2,0c-0.5,0.2-1,0-1.3-0.4c-0.3-0.5-0.1-1,0.3-1.4c0.1-0.1,0.2-0.3,0.2-0.4c0-0.2-0.1-0.3-0.2-0.4
					c-0.4-0.3-0.5-0.9-0.3-1.4c0.3-0.5,0.8-0.6,1.3-0.4c0.2,0.1,0.3,0,0.5,0c0.1-0.1,0.2-0.2,0.3-0.4C6.6,19.4,7,19,7.5,19
					c0.5,0,1,0.4,1,0.9c0,0.2,0.1,0.3,0.3,0.4c0.1,0.1,0.3,0.1,0.5,0c0.5-0.2,1,0,1.3,0.4c0.3,0.5,0.1,1-0.3,1.4
					c-0.1,0.1-0.2,0.3-0.2,0.4c0,0.2,0.1,0.3,0.2,0.4c0.4,0.3,0.5,0.9,0.3,1.4C10.4,24.8,9.8,25,9.3,24.8z"/>
				<path id="XMLID_2126_" d="M2.9,7.3c0.1,0,0.3-0.1,0.4-0.2C3.4,7,3.4,6.9,3.4,6.7c0-0.1-0.1-0.3-0.2-0.4C3.2,6.2,3,6.2,2.9,6.2
					c-0.1,0-0.3,0.1-0.4,0.2C2.4,6.5,2.3,6.6,2.3,6.7c0,0.1,0.1,0.3,0.2,0.4C2.6,7.2,2.7,7.3,2.9,7.3z"/>
				<path id="XMLID_2127_" d="M10.3,16.3c0.3,0,0.6-0.2,0.6-0.6v-2.4c0-1-0.8-1.8-1.8-1.8c-0.5,0-1,0.2-1.3,0.5
					c-0.3-0.3-0.8-0.5-1.3-0.5c-0.3,0-0.6,0.1-0.8,0.2c-0.1-0.2-0.3-0.3-0.5-0.3c-0.3,0-0.6,0.2-0.6,0.6v3.8c0,0.3,0.2,0.6,0.6,0.6
					s0.6-0.2,0.6-0.6v-2.4c0-0.4,0.3-0.7,0.7-0.7s0.7,0.3,0.7,0.7c0,0,0,0,0,0v2.4c0,0.3,0.2,0.6,0.6,0.6s0.6-0.2,0.6-0.6v-2.4
					c0,0,0,0,0,0c0-0.4,0.3-0.7,0.7-0.7s0.7,0.3,0.7,0.7v2.4C9.7,16,10,16.3,10.3,16.3L10.3,16.3z"/>
				<path id="XMLID_2128_" d="M23.3,16.3c0.3,0,0.6-0.2,0.6-0.6v-2.4c0-1-0.8-1.8-1.8-1.8c-0.5,0-1,0.2-1.3,0.5
					c-0.3-0.3-0.8-0.5-1.3-0.5c-0.3,0-0.6,0.1-0.8,0.2c-0.1-0.2-0.3-0.3-0.5-0.3c-0.3,0-0.6,0.2-0.6,0.6v3.8c0,0.3,0.2,0.6,0.6,0.6
					s0.6-0.2,0.6-0.6v-2.4c0-0.4,0.3-0.7,0.7-0.7s0.7,0.3,0.7,0.7c0,0,0,0,0,0v2.4c0,0.3,0.2,0.6,0.6,0.6s0.6-0.2,0.6-0.6v-2.4
					c0,0,0,0,0,0c0-0.4,0.3-0.7,0.7-0.7s0.7,0.3,0.7,0.7v2.4C22.7,16,22.9,16.3,23.3,16.3L23.3,16.3z"/>
				<path id="XMLID_2131_" d="M16,14.4v-1.2c0-1-0.8-1.8-1.8-1.8s-1.8,0.8-1.8,1.8v1.2c0,1,0.8,1.8,1.8,1.8S16,15.4,16,14.4z
					 M13.4,14.4v-1.2c0-0.4,0.3-0.7,0.7-0.7c0.4,0,0.7,0.3,0.7,0.7v1.2c0,0.4-0.3,0.7-0.7,0.7S13.4,14.8,13.4,14.4z"/>
				<path id="XMLID_2132_" d="M7.5,22c-0.1,0-0.3,0.1-0.4,0.2C7,22.3,7,22.4,7,22.6C7,22.7,7,22.9,7.1,23c0.1,0.1,0.2,0.2,0.4,0.2
					c0.1,0,0.3-0.1,0.4-0.2c0.1-0.1,0.2-0.2,0.2-0.4c0-0.1-0.1-0.3-0.2-0.4C7.8,22.1,7.7,22,7.5,22z"/>
				<path id="XMLID_2133_" d="M21.3,4.1c-0.1,0-0.3,0.1-0.4,0.2c-0.1,0.1-0.2,0.2-0.2,0.4c0,0.1,0.1,0.3,0.2,0.4
					c0.1,0.1,0.2,0.2,0.4,0.2c0.1,0,0.3-0.1,0.4-0.2c0.1-0.1,0.2-0.2,0.2-0.4c0-0.1-0.1-0.3-0.2-0.4C21.6,4.2,21.4,4.1,21.3,4.1z"/>
			</g>
		</g>
	</g>
</g>
</svg>
