<svg id="Capa_1" enable-background="new 0 0 512 512" height="512" viewBox="0 0 512 512" width="512" xmlns="http://www.w3.org/2000/svg"><g><g><g><path d="m181.268 121.217c-4.142 0-7.5-3.358-7.5-7.5v-12c0-4.142 3.358-7.5 7.5-7.5s7.5 3.358 7.5 7.5v12c0 4.142-3.358 7.5-7.5 7.5z"/></g><g><path d="m256 157.688c-17.2 0-31.193-15.258-31.193-34.013 0-23.519 21.859-23.519 31.193-23.519s31.193 0 31.193 23.519c0 18.755-13.993 34.013-31.193 34.013zm0-42.532c-15.539 0-16.193 2.611-16.193 8.519 0 10.484 7.264 19.013 16.193 19.013s16.193-8.529 16.193-19.013c0-5.907-.654-8.519-16.193-8.519z"/></g><g><path d="m330.732 121.217c-4.142 0-7.5-3.358-7.5-7.5v-12c0-4.142 3.358-7.5 7.5-7.5s7.5 3.358 7.5 7.5v12c0 4.142-3.358 7.5-7.5 7.5z"/></g></g><g><path d="m464.5.942h-417c-26.191 0-47.5 21.308-47.5 47.5v280c0 26.191 21.309 47.5 47.5 47.5h76.247c-1.643 8.955-.088 18.28 4.514 26.25 5.33 9.233 14.245 15.818 24.595 18.247l-18.002 43.461c-2.474 5.974-1.464 12.792 2.635 17.792 4.1 5.001 10.587 7.328 16.929 6.072l22.29-4.41c.992-.196 1.999.22 2.563 1.062l12.644 18.88c3.273 4.888 8.725 7.763 14.528 7.763.576 0 1.156-.028 1.737-.086 6.435-.637 11.969-4.744 14.444-10.718l12.595-30.407c6.149 3.934 13.352 6.094 20.782 6.094s14.632-2.16 20.781-6.094l12.595 30.407c2.475 5.974 8.009 10.081 14.444 10.718.582.058 1.161.086 1.737.086 5.802 0 11.255-2.875 14.528-7.763l12.644-18.88c.563-.841 1.572-1.256 2.562-1.062l22.29 4.41c6.342 1.256 12.83-1.072 16.929-6.072 4.1-5 5.109-11.818 2.635-17.792l-18.002-43.461c10.35-2.429 19.265-9.014 24.596-18.247 4.601-7.97 6.157-17.295 4.514-26.25h76.246c26.191 0 47.5-21.309 47.5-47.5v-280c0-26.192-21.309-47.5-47.5-47.5zm-255.735 493.572c-.499 1.204-1.507 1.476-2.063 1.531-.556.054-1.599-.015-2.323-1.097l-12.644-18.88c-3.943-5.889-10.983-8.806-17.937-7.43l-22.29 4.41c-1.281.253-2.064-.435-2.418-.867-.354-.433-.875-1.338-.376-2.542l15.457-37.317c2.564 10.037 9.066 18.654 18.08 23.858 9.501 5.486 20.933 6.66 31.361 3.223 3.173-1.047 6.55-.793 9.462.567zm154.146-22.332c-.355.432-1.142 1.121-2.418.867l-22.291-4.41c-6.956-1.376-13.993 1.542-17.936 7.43l-12.644 18.88c-.726 1.083-1.771 1.148-2.324 1.097-.557-.055-1.565-.327-2.063-1.531l-14.309-34.544c2.912-1.359 6.288-1.613 9.463-.567 10.427 3.438 21.859 2.263 31.361-3.223 9.013-5.203 15.516-13.821 18.08-23.858l15.458 37.317c.498 1.204-.023 2.109-.377 2.542zm7.838-77.49c-3.392 5.875-9.158 10.003-15.82 11.328-10.653 2.117-19.233 10.697-21.35 21.349-1.325 6.663-5.454 12.43-11.328 15.821-5.805 3.352-12.79 4.07-19.164 1.967-10.536-3.473-22.117-.371-29.506 7.906-4.469 5.007-10.877 7.878-17.58 7.878s-13.111-2.872-17.58-7.879c-5.379-6.025-12.98-9.309-20.782-9.309-2.915 0-5.858.458-8.723 1.403-6.373 2.103-13.359 1.385-19.165-1.967-5.874-3.392-10.003-9.158-11.328-15.821-2.117-10.652-10.697-19.232-21.35-21.35-6.663-1.325-12.429-5.454-15.821-11.328-3.352-5.805-4.068-12.79-1.967-19.164 3.474-10.536.371-22.118-7.906-29.505-5.007-4.469-7.879-10.877-7.879-17.581s2.872-13.111 7.879-17.58c8.276-7.388 11.379-18.97 7.906-29.505-2.102-6.375-1.385-13.36 1.967-19.165 3.392-5.875 9.158-10.003 15.821-11.328 10.653-2.118 19.232-10.698 21.35-21.35 1.325-6.663 5.454-12.429 11.328-15.821 5.805-3.352 12.791-4.069 19.165-1.967 10.537 3.472 22.118.369 29.505-7.906 4.469-5.007 10.877-7.879 17.58-7.879s13.111 2.872 17.58 7.878c7.387 8.276 18.97 11.38 29.505 7.907 6.375-2.102 13.36-1.384 19.165 1.967 5.875 3.392 10.003 9.158 11.328 15.82 2.117 10.652 10.697 19.232 21.35 21.351 6.663 1.325 12.429 5.453 15.821 11.328 3.352 5.805 4.068 12.791 1.967 19.165-3.474 10.536-.371 22.117 7.906 29.505 5.007 4.469 7.879 10.877 7.879 17.58s-2.872 13.111-7.878 17.581c-8.277 7.388-11.38 18.969-7.906 29.505 2.099 6.376 1.382 13.361-1.969 19.166zm126.251-66.25c0 17.92-14.58 32.5-32.5 32.5h-76.77c.709-1.385 1.676-2.654 2.881-3.729 6.297-5.621 10.518-13.12 12.14-21.271h21.75c4.142 0 7.5-3.358 7.5-7.5 0-17.92 14.58-32.5 32.5-32.5 4.142 0 7.5-3.358 7.5-7.5v-131.786c0-4.142-3.358-7.5-7.5-7.5s-7.5 3.358-7.5 7.5v124.877c-20.197 3.217-36.191 19.211-39.409 39.409h-14.842c-1.621-8.151-5.843-15.65-12.14-21.271-3.82-3.41-5.252-8.755-3.649-13.618 3.438-10.428 2.263-21.859-3.223-31.361-5.551-9.615-14.986-16.373-25.886-18.54-4.771-.949-8.614-4.792-9.563-9.563-2.167-10.899-8.925-20.334-18.54-25.885-9.501-5.486-20.931-6.66-31.361-3.223-4.863 1.604-10.208.171-13.619-3.649-7.312-8.191-17.799-12.89-28.771-12.89s-21.458 4.698-28.771 12.89c-3.409 3.82-8.756 5.252-13.619 3.649-10.427-3.438-21.859-2.263-31.361 3.223-9.615 5.551-16.373 14.986-18.54 25.886-.948 4.771-4.792 8.614-9.563 9.563-10.9 2.167-20.335 8.924-25.886 18.54-5.486 9.502-6.661 20.933-3.223 31.362 1.604 4.862.171 10.208-3.649 13.618-6.297 5.621-10.518 13.12-12.139 21.271h-14.838c-3.218-20.2-19.212-36.194-39.409-39.411v-186.183c20.197-3.217 36.191-19.211 39.409-39.409h323.183c3.217 20.198 19.211 36.192 39.408 39.409v31.306c0 4.142 3.358 7.5 7.5 7.5s7.5-3.358 7.5-7.5v-38.214c0-4.142-3.358-7.5-7.5-7.5-17.92 0-32.5-14.58-32.5-32.5 0-4.142-3.358-7.5-7.5-7.5h-337c-4.142 0-7.5 3.358-7.5 7.5 0 17.92-14.58 32.5-32.5 32.5-4.142 0-7.5 3.358-7.5 7.5v200c0 4.142 3.358 7.5 7.5 7.5 17.92 0 32.5 14.58 32.5 32.5 0 4.142 3.358 7.5 7.5 7.5h21.75c1.621 8.151 5.843 15.65 12.14 21.271 1.205 1.075 2.171 2.344 2.88 3.729h-76.77c-17.92 0-32.5-14.58-32.5-32.5v-280c0-17.92 14.58-32.5 32.5-32.5h417c17.92 0 32.5 14.58 32.5 32.5z"/><path d="m298.326 363.854c-3.18-1.597-5.728-4.615-7.174-8.498-5.438-14.604-19.564-24.415-35.151-24.415-4.977 0-9.814.961-14.379 2.858-3.825 1.589-5.637 5.979-4.048 9.804s5.98 5.638 9.803 4.048c2.731-1.135 5.633-1.71 8.624-1.71 9.354 0 17.832 5.887 21.095 14.649 2.773 7.447 7.923 13.366 14.501 16.669 4.258 2.137 6.904 6.422 6.904 11.182 0 6.893-5.607 12.5-12.5 12.5h-60c-6.893 0-12.5-5.607-12.5-12.5 0-4.76 2.646-9.044 6.904-11.182 4.192-2.105 7.891-5.345 10.696-9.371 2.368-3.399 1.532-8.073-1.866-10.441s-8.074-1.533-10.441 1.866c-1.401 2.011-3.123 3.539-5.118 4.54-9.36 4.699-15.174 14.12-15.174 24.588 0 15.164 12.336 27.5 27.5 27.5h60c15.164 0 27.5-12.336 27.5-27.5-.002-10.467-5.816-19.889-15.176-24.587z"/><path d="m228.5 313.442c0-21.028-12.08-37.5-27.5-37.5s-27.5 16.472-27.5 37.5 12.08 37.5 27.5 37.5 27.5-16.473 27.5-37.5zm-40 0c0-13.26 6.588-22.5 12.5-22.5s12.5 9.24 12.5 22.5-6.588 22.5-12.5 22.5-12.5-9.241-12.5-22.5z"/><path d="m311 275.942c-15.42 0-27.5 16.472-27.5 37.5s12.08 37.5 27.5 37.5 27.5-16.472 27.5-37.5-12.08-37.5-27.5-37.5zm0 60c-5.912 0-12.5-9.24-12.5-22.5s6.588-22.5 12.5-22.5 12.5 9.24 12.5 22.5-6.588 22.5-12.5 22.5z"/><path d="m256 315.942c15.42 0 27.5-16.472 27.5-37.5s-12.08-37.5-27.5-37.5-27.5 16.472-27.5 37.5 12.08 37.5 27.5 37.5zm0-60c5.912 0 12.5 9.24 12.5 22.5s-6.588 22.5-12.5 22.5-12.5-9.24-12.5-22.5 6.588-22.5 12.5-22.5z"/></g></g></svg>