<?xml version="1.0" encoding="utf-8"?>
<!-- Generator: Adobe Illustrator 23.0.3, SVG Export Plug-In . SVG Version: 6.00 Build 0)  -->
<svg version="1.1" id="Capa_1" xmlns="http://www.w3.org/2000/svg" xmlns:xlink="http://www.w3.org/1999/xlink" x="0px" y="0px"
	 viewBox="0 0 28.3 28.2" style="enable-background:new 0 0 28.3 28.2;" xml:space="preserve">
<g>
	<g>
		<g>
			<path d="M10,6.7c-0.2,0-0.4-0.2-0.4-0.4V5.6c0-0.2,0.2-0.4,0.4-0.4c0.2,0,0.4,0.2,0.4,0.4v0.7C10.5,6.5,10.3,6.7,10,6.7z"/>
		</g>
		<g>
			<path d="M14.2,8.7c-1,0-1.7-0.8-1.7-1.9c0-1.3,1.2-1.3,1.7-1.3s1.7,0,1.7,1.3C15.9,7.8,15.1,8.7,14.2,8.7z M14.2,6.3
				c-0.9,0-0.9,0.1-0.9,0.5c0,0.6,0.4,1.1,0.9,1.1c0.5,0,0.9-0.5,0.9-1.1C15.1,6.5,15,6.3,14.2,6.3z"/>
		</g>
		<g>
			<path d="M18.3,6.7c-0.2,0-0.4-0.2-0.4-0.4V5.6c0-0.2,0.2-0.4,0.4-0.4s0.4,0.2,0.4,0.4v0.7C18.7,6.5,18.5,6.7,18.3,6.7z"/>
		</g>
	</g>
	<g>
		<path d="M25.7,0H2.6C1.2,0,0,1.2,0,2.6v15.5c0,1.5,1.2,2.6,2.6,2.6h4.2c-0.1,0.5,0,1,0.2,1.5c0.3,0.5,0.8,0.9,1.4,1l-1,2.4
			c-0.1,0.3-0.1,0.7,0.1,1C7.8,26.9,8.2,27,8.5,27l1.2-0.2c0.1,0,0.1,0,0.1,0.1l0.7,1c0.2,0.3,0.5,0.4,0.8,0.4c0,0,0.1,0,0.1,0
			c0.4,0,0.7-0.3,0.8-0.6L13,26c0.3,0.2,0.7,0.3,1.2,0.3c0.4,0,0.8-0.1,1.2-0.3l0.7,1.7c0.1,0.3,0.4,0.6,0.8,0.6c0,0,0.1,0,0.1,0
			c0.3,0,0.6-0.2,0.8-0.4l0.7-1c0,0,0.1-0.1,0.1-0.1l1.2,0.2c0.4,0.1,0.7-0.1,0.9-0.3c0.2-0.3,0.3-0.7,0.1-1l-1-2.4
			c0.6-0.1,1.1-0.5,1.4-1c0.3-0.4,0.3-1,0.2-1.5h4.2c1.5,0,2.6-1.2,2.6-2.6V2.6C28.3,1.2,27.2,0,25.7,0L25.7,0z M11.6,27.3
			c0,0.1-0.1,0.1-0.1,0.1c0,0-0.1,0-0.1-0.1l-0.7-1c-0.2-0.3-0.6-0.5-1-0.4l-1.2,0.2c-0.1,0-0.1,0-0.1,0c0,0,0-0.1,0-0.1l0.9-2.1
			c0.1,0.6,0.5,1,1,1.3c0.5,0.3,1.2,0.4,1.7,0.2c0.2-0.1,0.4,0,0.5,0L11.6,27.3z M20.1,26.1c0,0-0.1,0.1-0.1,0l-1.2-0.2
			c-0.4-0.1-0.8,0.1-1,0.4l-0.7,1c0,0.1-0.1,0.1-0.1,0.1c0,0-0.1,0-0.1-0.1L16,25.4c0.2-0.1,0.3-0.1,0.5,0c0.6,0.2,1.2,0.1,1.7-0.2
			c0.5-0.3,0.9-0.8,1-1.3l0.9,2.1C20.1,26,20.1,26.1,20.1,26.1L20.1,26.1z M20.5,21.8c-0.2,0.3-0.5,0.6-0.9,0.6
			c-0.6,0.1-1.1,0.6-1.2,1.2c-0.1,0.4-0.3,0.7-0.6,0.9c-0.3,0.2-0.7,0.2-1.1,0.1c-0.6-0.2-1.2,0-1.6,0.4c-0.2,0.3-0.6,0.4-1,0.4
			s-0.7-0.2-1-0.4c-0.3-0.3-0.7-0.5-1.2-0.5c-0.2,0-0.3,0-0.5,0.1c-0.4,0.1-0.7,0.1-1.1-0.1c-0.3-0.2-0.6-0.5-0.6-0.9
			c-0.1-0.6-0.6-1.1-1.2-1.2c-0.4-0.1-0.7-0.3-0.9-0.6c-0.2-0.3-0.2-0.7-0.1-1.1c0.2-0.6,0-1.2-0.4-1.6c-0.3-0.2-0.4-0.6-0.4-1
			c0-0.4,0.2-0.7,0.4-1c0.5-0.4,0.6-1.1,0.4-1.6c-0.1-0.4-0.1-0.7,0.1-1.1c0.2-0.3,0.5-0.6,0.9-0.6c0.6-0.1,1.1-0.6,1.2-1.2
			c0.1-0.4,0.3-0.7,0.6-0.9c0.3-0.2,0.7-0.2,1.1-0.1c0.6,0.2,1.2,0,1.6-0.4c0.2-0.3,0.6-0.4,1-0.4c0.4,0,0.7,0.2,1,0.4
			c0.4,0.5,1.1,0.6,1.6,0.4c0.4-0.1,0.7-0.1,1.1,0.1c0.3,0.2,0.6,0.5,0.6,0.9c0.1,0.6,0.6,1.1,1.2,1.2c0.4,0.1,0.7,0.3,0.9,0.6
			c0.2,0.3,0.2,0.7,0.1,1.1c-0.2,0.6,0,1.2,0.4,1.6c0.3,0.2,0.4,0.6,0.4,1c0,0.4-0.2,0.7-0.4,1c-0.5,0.4-0.6,1.1-0.4,1.6
			C20.8,21.1,20.7,21.5,20.5,21.8L20.5,21.8z M27.5,18.1c0,1-0.8,1.8-1.8,1.8h-4.3c0-0.1,0.1-0.1,0.2-0.2c0.3-0.3,0.6-0.7,0.7-1.2
			h1.2c0.2,0,0.4-0.2,0.4-0.4c0-1,0.8-1.8,1.8-1.8c0.2,0,0.4-0.2,0.4-0.4V8.6c0-0.2-0.2-0.4-0.4-0.4s-0.4,0.2-0.4,0.4v6.9
			c-1.1,0.2-2,1.1-2.2,2.2h-0.8c-0.1-0.5-0.3-0.9-0.7-1.2c-0.2-0.2-0.3-0.5-0.2-0.8c0.2-0.6,0.1-1.2-0.2-1.7c-0.3-0.5-0.8-0.9-1.4-1
			c-0.3-0.1-0.5-0.3-0.5-0.5c-0.1-0.6-0.5-1.1-1-1.4c-0.5-0.3-1.2-0.4-1.7-0.2c-0.3,0.1-0.6,0-0.8-0.2c-0.4-0.5-1-0.7-1.6-0.7
			c-0.6,0-1.2,0.3-1.6,0.7c-0.2,0.2-0.5,0.3-0.8,0.2c-0.6-0.2-1.2-0.1-1.7,0.2c-0.5,0.3-0.9,0.8-1,1.4C9,12.8,8.8,13,8.5,13
			c-0.6,0.1-1.1,0.5-1.4,1c-0.3,0.5-0.4,1.2-0.2,1.7c0.1,0.3,0,0.6-0.2,0.8c-0.3,0.3-0.6,0.7-0.7,1.2H5.2c-0.2-1.1-1.1-2-2.2-2.2
			V5.2C4.2,5,5,4.2,5.2,3h17.9c0.2,1.1,1.1,2,2.2,2.2V7c0,0.2,0.2,0.4,0.4,0.4c0.2,0,0.4-0.2,0.4-0.4V4.8c0-0.2-0.2-0.4-0.4-0.4
			c-1,0-1.8-0.8-1.8-1.8c0-0.2-0.2-0.4-0.4-0.4H4.8c-0.2,0-0.4,0.2-0.4,0.4c0,1-0.8,1.8-1.8,1.8c-0.2,0-0.4,0.2-0.4,0.4v11.1
			c0,0.2,0.2,0.4,0.4,0.4c1,0,1.8,0.8,1.8,1.8c0,0.2,0.2,0.4,0.4,0.4H6c0.1,0.5,0.3,0.9,0.7,1.2c0.1,0.1,0.1,0.1,0.2,0.2H2.6
			c-1,0-1.8-0.8-1.8-1.8V2.6c0-1,0.8-1.8,1.8-1.8h23.1c1,0,1.8,0.8,1.8,1.8L27.5,18.1z"/>
		<path d="M16.5,20.1c-0.2-0.1-0.3-0.3-0.4-0.5c-0.3-0.8-1.1-1.4-1.9-1.4c-0.3,0-0.5,0.1-0.8,0.2c-0.2,0.1-0.3,0.3-0.2,0.5
			c0.1,0.2,0.3,0.3,0.5,0.2c0.2-0.1,0.3-0.1,0.5-0.1c0.5,0,1,0.3,1.2,0.8c0.2,0.4,0.4,0.7,0.8,0.9c0.2,0.1,0.4,0.4,0.4,0.6
			c0,0.4-0.3,0.7-0.7,0.7h-3.3c-0.4,0-0.7-0.3-0.7-0.7c0-0.3,0.1-0.5,0.4-0.6c0.2-0.1,0.4-0.3,0.6-0.5c0.1-0.2,0.1-0.4-0.1-0.6
			c-0.2-0.1-0.4-0.1-0.6,0.1C12,20,11.9,20,11.8,20.1c-0.5,0.3-0.8,0.8-0.8,1.4c0,0.8,0.7,1.5,1.5,1.5h3.3c0.8,0,1.5-0.7,1.5-1.5
			C17.4,20.9,17,20.4,16.5,20.1L16.5,20.1z"/>
		<path d="M12.7,17.3c0-1.2-0.7-2.1-1.5-2.1c-0.9,0-1.5,0.9-1.5,2.1c0,1.2,0.7,2.1,1.5,2.1C12,19.4,12.7,18.5,12.7,17.3z M10.4,17.3
			c0-0.7,0.4-1.2,0.7-1.2c0.3,0,0.7,0.5,0.7,1.2c0,0.7-0.4,1.2-0.7,1.2C10.8,18.5,10.4,18,10.4,17.3z"/>
		<path d="M17.2,15.2c-0.9,0-1.5,0.9-1.5,2.1c0,1.2,0.7,2.1,1.5,2.1s1.5-0.9,1.5-2.1C18.7,16.1,18.1,15.2,17.2,15.2z M17.2,18.5
			c-0.3,0-0.7-0.5-0.7-1.2c0-0.7,0.4-1.2,0.7-1.2s0.7,0.5,0.7,1.2C17.9,18,17.5,18.5,17.2,18.5z"/>
		<path d="M14.2,17.4c0.9,0,1.5-0.9,1.5-2.1s-0.7-2.1-1.5-2.1c-0.9,0-1.5,0.9-1.5,2.1S13.3,17.4,14.2,17.4z M14.2,14.1
			c0.3,0,0.7,0.5,0.7,1.2c0,0.7-0.4,1.2-0.7,1.2c-0.3,0-0.7-0.5-0.7-1.2C13.5,14.6,13.8,14.1,14.2,14.1z"/>
	</g>
</g>
</svg>
