<?xml version="1.0" encoding="utf-8"?>
<!-- Generator: Adobe Illustrator 23.0.3, SVG Export Plug-In . SVG Version: 6.00 Build 0)  -->
<svg version="1.1" id="Слой_1" xmlns="http://www.w3.org/2000/svg" xmlns:xlink="http://www.w3.org/1999/xlink" x="0px" y="0px"
	 viewBox="0 0 37.9 37.7" style="enable-background:new 0 0 37.9 37.7;" xml:space="preserve">
<path d="M35.5,14.5c-0.4,0-0.8-0.3-1-0.7c-0.7-2.5-2-4.8-3.7-6.6c-1.7-1.7-4.1-3.1-6.6-3.7c-0.5-0.1-0.8-0.7-0.7-1.2
	s0.7-0.8,1.2-0.7c2.8,0.8,5.5,2.3,7.4,4.3c2,2,3.5,4.6,4.3,7.4c0.1,0.5-0.2,1.1-0.7,1.2C35.7,14.5,35.6,14.5,35.5,14.5z"/>
<path d="M29.5,16.1c-0.4,0-0.9-0.3-1-0.8c-0.4-1.4-1.1-2.7-2.1-3.7c-1.2-1.1-2.5-1.8-3.7-2.1c-0.5-0.1-0.9-0.7-0.7-1.2
	c0.1-0.5,0.7-0.9,1.2-0.7c1.6,0.4,3.2,1.3,4.6,2.6c1.4,1.4,2.3,2.9,2.7,4.7c0.1,0.5-0.2,1.1-0.7,1.2C29.7,16.1,29.6,16.1,29.5,16.1z
	"/>
<path d="M27.6,37.7c-7.3,0-14.4-2.9-19.5-8.1C2.9,24.4,0,17.5,0,10.1c0.2-2.6,1.2-4.9,2.8-6.7c1.7-1.9,4-3.1,6.5-3.4
	c0,0,0.1,0,0.1,0c0.4,0,1,0,1.6,0.4c0.4,0.3,0.7,0.6,1,1C12,1.4,12,1.5,12,1.5l3.9,9.2c0.2,0.4,0.2,0.8,0.2,1.2
	c0,0.5-0.2,0.9-0.3,1.1c0,0,0,0.1-0.1,0.1l-3.2,4.9c0,0.1-0.1,0.2-0.1,0.2c-0.1,0.1-0.1,0.3-0.2,0.4c1.5,3.1,4,5.6,7.1,7.1
	c0.1,0,0.1,0,0.1,0c0.1,0,0.1,0,0.3,0c0,0,0.1-0.1,0.1-0.1l4.9-3.3c0,0,0.1,0,0.1-0.1c0.1-0.1,0.3-0.1,0.4-0.2
	c0.1,0,0.2-0.1,0.3-0.1c0.1-0.1,0.3-0.1,0.4-0.1c0.3,0,0.7,0,1.1,0.2l9.2,3.9c0.5,0.2,1,0.6,1.2,1.2c0.3,0.5,0.3,1,0.3,1.4
	c0,0,0,0.1,0,0.1c-0.3,2.5-1.5,4.7-3.4,6.4C32.6,36.8,30.2,37.7,27.6,37.7z M9.5,2c-2,0.3-3.9,1.3-5.2,2.8C3,6.2,2.2,8.1,2,10.2
	c0,6.7,2.7,13.2,7.5,18c4.8,4.8,11.4,7.5,18.1,7.5c2.1,0,4-0.7,5.5-2c1.5-1.4,2.5-3.1,2.8-5.1c0-0.2,0-0.3,0-0.4
	c0-0.1-0.1-0.2-0.1-0.2c0,0-0.1-0.1-0.1-0.1l-9.2-3.9c0,0-0.1,0-0.2,0c-0.1,0-0.1,0.1-0.2,0.1C26,24,26,24,25.9,24.1l-4.8,3.2
	c-0.3,0.3-0.7,0.5-1.2,0.5c-0.4,0.1-0.9,0-1.4-0.2c-3.5-1.7-6.4-4.6-8.1-8.1c0,0,0-0.1,0-0.1c-0.2-0.5-0.2-0.9,0-1.4
	c0,0,0-0.1,0.1-0.1c0-0.1,0.1-0.2,0.1-0.3c0.1-0.2,0.1-0.3,0.2-0.4c0,0,0-0.1,0.1-0.1l3.2-5c0.1-0.1,0.1-0.2,0.1-0.2
	c0-0.1,0-0.3,0-0.4l-3.9-9.1C10.1,2.2,10,2.1,9.8,2C9.8,2,9.6,2,9.5,2z"/>
</svg>
