<?xml version="1.0" encoding="iso-8859-1"?>
<!-- Generator: Adobe Illustrator 19.0.0, SVG Export Plug-In . SVG Version: 6.00 Build 0)  -->
<svg version="1.1" id="Capa_1" xmlns="http://www.w3.org/2000/svg" xmlns:xlink="http://www.w3.org/1999/xlink" x="0px" y="0px"
	 viewBox="0 0 512.001 512.001" style="enable-background:new 0 0 512.001 512.001;" xml:space="preserve">
<g>
	<g>
		<path d="M489.273,256L512,215.454l-34.145-31.539l9.087-45.586l-42.22-19.444l-5.445-46.162l-46.162-5.445l-19.444-42.22
			l-45.585,9.086L296.547,0L256,22.727L215.454,0l-31.538,34.145l-45.585-9.086l-19.444,42.22l-46.162,5.445l-5.445,46.162
			L25.059,138.33l9.087,45.586L0,215.454L22.728,256L0,296.546l34.145,31.539l-9.087,45.586l42.22,19.444l5.445,46.162l46.162,5.445
			l19.444,42.22l45.585-9.087l31.538,34.145l40.546-22.727l40.546,22.727l31.538-34.145l45.585,9.087l19.444-42.22l46.162-5.445
			l5.445-46.162l42.22-19.444l-9.087-45.586l34.145-31.539L489.273,256z M474.239,290.565l-29.11,26.887l7.746,38.862
			l-35.993,16.575l-4.642,39.353l-39.352,4.642l-16.575,35.992l-38.861-7.746l-26.887,29.109L256,454.863l-34.565,19.376
			l-26.888-29.109l-38.861,7.746l-16.575-35.992l-39.352-4.642l-4.642-39.353l-35.993-16.575l7.746-38.862l-29.11-26.887L57.135,256
			L37.76,221.435l29.11-26.887l-7.746-38.862l35.993-16.575l4.642-39.353l39.352-4.642l16.575-35.992l38.861,7.746l26.888-29.109
			L256,57.137l34.565-19.376l26.888,29.109l38.861-7.746l16.575,35.992l39.352,4.642l4.642,39.353l35.993,16.575l-7.746,38.862
			l29.109,26.887L454.865,256L474.239,290.565z"/>
	</g>
</g>
<g>
	<g>
		<path d="M168.495,264.99c-1.354-3.158-3.295-5.839-5.817-8.05c-2.525-2.208-5.569-4.125-9.131-5.748
			c-3.563-1.623-7.553-3.111-11.97-4.463c-2.795-0.899-5.298-1.668-7.506-2.299c-2.211-0.629-4.081-1.285-5.613-1.961
			c-1.535-0.676-2.705-1.42-3.517-2.231c-0.812-0.811-1.218-1.847-1.218-3.111c0-1.712,0.697-2.928,2.096-3.652
			c1.397-0.72,3.268-1.083,5.613-1.083c2.885,0,5.837,0.473,8.858,1.421c3.021,0.946,5.749,1.961,8.183,3.044
			c2.885,1.264,5.681,2.705,8.386,4.328l11.361-21.776c-2.164-1.083-4.598-2.231-7.304-3.449c-2.705-1.218-5.613-2.344-8.724-3.382
			c-3.111-1.036-6.335-1.893-9.671-2.569c-3.337-0.676-6.762-1.015-10.278-1.015c-4.78,0-9.312,0.699-13.593,2.096
			c-4.284,1.399-8.095,3.449-11.43,6.154c-3.337,2.705-5.974,6.086-7.912,10.144c-1.939,4.058-2.907,8.747-2.907,14.066
			c0,3.517,0.473,6.627,1.42,9.333c0.946,2.705,2.411,5.119,4.396,7.236c1.982,2.12,4.508,4.013,7.574,5.681
			c3.065,1.67,6.716,3.226,10.956,4.666c2.885,0.993,5.613,1.849,8.183,2.569c2.569,0.723,4.846,1.444,6.83,2.164
			c1.982,0.722,3.538,1.556,4.666,2.502c1.127,0.947,1.69,2.096,1.69,3.449c0,1.264-0.564,2.278-1.69,3.044
			c-1.129,0.767-3.135,1.15-6.019,1.15c-3.787,0-7.507-0.54-11.159-1.623c-3.651-1.083-6.92-2.299-9.806-3.652
			c-3.428-1.532-6.718-3.291-9.873-5.275l-11.361,23.129c2.884,1.714,6.019,3.247,9.4,4.599c3.382,1.353,6.898,2.525,10.55,3.517
			c3.652,0.994,7.325,1.758,11.024,2.299c3.696,0.54,7.304,0.811,10.819,0.811c4.417,0,8.813-0.52,13.188-1.556
			c4.372-1.036,8.295-2.726,11.768-5.072c3.47-2.344,6.266-5.478,8.385-9.4c2.118-3.923,3.179-8.768,3.179-14.54
			C170.523,271.979,169.847,268.147,168.495,264.99z"/>
	</g>
</g>
<g>
	<g>
		<path d="M228.682,209.804h-24.076l-33.408,96.029h26.916l5.681-18.799h25.563l5.816,18.799h26.781L228.682,209.804z
			 M207.716,269.451l8.928-29.756l8.521,29.756H207.716z"/>
	</g>
</g>
<g>
	<g>
		<polygon points="296.307,282.841 296.307,209.804 269.932,209.804 269.932,305.834 339.858,305.834 339.858,282.841 		"/>
	</g>
</g>
<g>
	<g>
		<polygon points="375.429,282.841 375.429,267.693 410.324,267.693 410.324,246.322 375.429,246.322 375.429,232.797 
			416.275,232.797 416.275,209.804 349.054,209.804 349.054,305.834 417.493,305.834 417.493,282.841 		"/>
	</g>
</g>
<g>
</g>
<g>
</g>
<g>
</g>
<g>
</g>
<g>
</g>
<g>
</g>
<g>
</g>
<g>
</g>
<g>
</g>
<g>
</g>
<g>
</g>
<g>
</g>
<g>
</g>
<g>
</g>
<g>
</g>
</svg>
