<?xml version="1.0" encoding="utf-8"?>
<!-- Generator: Adobe Illustrator 23.0.3, SVG Export Plug-In . SVG Version: 6.00 Build 0)  -->
<svg version="1.1" id="Capa_1" xmlns="http://www.w3.org/2000/svg" xmlns:xlink="http://www.w3.org/1999/xlink" x="0px" y="0px"
	 viewBox="0 0 28.3 28.3" style="enable-background:new 0 0 28.3 28.3;" xml:space="preserve">
<g>
	<g>
		<path d="M27.1,14.2l1.3-2.2l-1.9-1.7L27,7.7l-2.3-1.1L24.3,4l-2.6-0.3l-1.1-2.3l-2.5,0.5L16.4,0l-2.2,1.3L11.9,0l-1.7,1.9L7.7,1.4
			L6.6,3.7L4,4L3.7,6.6L1.4,7.7l0.5,2.5L0,11.9l1.3,2.2L0,16.4l1.9,1.7l-0.5,2.5l2.3,1.1L4,24.3l2.6,0.3L7.7,27l2.5-0.5l1.7,1.9
			l2.2-1.3l2.2,1.3l1.7-1.9l2.5,0.5l1.1-2.3l2.6-0.3l0.3-2.6l2.3-1.1l-0.5-2.5l1.9-1.7L27.1,14.2z M26.3,16.1l-1.6,1.5l0.4,2.2
			l-2,0.9l-0.3,2.2l-2.2,0.3l-0.9,2l-2.2-0.4l-1.5,1.6l-1.9-1.1l-1.9,1.1l-1.5-1.6l-2.2,0.4l-0.9-2l-2.2-0.3l-0.3-2.2l-2-0.9
			l0.4-2.2l-1.6-1.5l1.1-1.9l-1.1-1.9l1.6-1.5L3.3,8.6l2-0.9l0.3-2.2l2.2-0.3l0.9-2l2.2,0.4l1.5-1.6l1.9,1.1l1.9-1.1l1.5,1.6
			l2.2-0.4l0.9,2l2.2,0.3l0.3,2.2l2,0.9l-0.4,2.2l1.6,1.5l-1.1,1.9L26.3,16.1z"/>
	</g>
</g>
<g>
	<g>
		<path d="M9.3,14.7c-0.1-0.2-0.2-0.3-0.3-0.4c-0.1-0.1-0.3-0.2-0.5-0.3c-0.2-0.1-0.4-0.2-0.7-0.2c-0.2,0-0.3-0.1-0.4-0.1
			c-0.1,0-0.2-0.1-0.3-0.1c-0.1,0-0.1-0.1-0.2-0.1c0,0-0.1-0.1-0.1-0.2c0-0.1,0-0.2,0.1-0.2c0.1,0,0.2-0.1,0.3-0.1
			c0.2,0,0.3,0,0.5,0.1c0.2,0.1,0.3,0.1,0.5,0.2c0.2,0.1,0.3,0.1,0.5,0.2l0.6-1.2C9.2,12.1,9.1,12,8.9,12c-0.1-0.1-0.3-0.1-0.5-0.2
			c-0.2-0.1-0.4-0.1-0.5-0.1c-0.2,0-0.4-0.1-0.6-0.1c-0.3,0-0.5,0-0.8,0.1c-0.2,0.1-0.4,0.2-0.6,0.3c-0.2,0.1-0.3,0.3-0.4,0.6
			c-0.1,0.2-0.2,0.5-0.2,0.8c0,0.2,0,0.4,0.1,0.5c0.1,0.1,0.1,0.3,0.2,0.4c0.1,0.1,0.2,0.2,0.4,0.3c0.2,0.1,0.4,0.2,0.6,0.3
			C6.8,14.9,7,15,7.1,15c0.1,0,0.3,0.1,0.4,0.1c0.1,0,0.2,0.1,0.3,0.1c0.1,0.1,0.1,0.1,0.1,0.2c0,0.1,0,0.1-0.1,0.2
			c-0.1,0-0.2,0.1-0.3,0.1c-0.2,0-0.4,0-0.6-0.1c-0.2-0.1-0.4-0.1-0.5-0.2c-0.2-0.1-0.4-0.2-0.5-0.3l-0.6,1.3
			c0.2,0.1,0.3,0.2,0.5,0.3c0.2,0.1,0.4,0.1,0.6,0.2c0.2,0.1,0.4,0.1,0.6,0.1c0.2,0,0.4,0,0.6,0c0.2,0,0.5,0,0.7-0.1
			c0.2-0.1,0.5-0.2,0.7-0.3c0.2-0.1,0.3-0.3,0.5-0.5c0.1-0.2,0.2-0.5,0.2-0.8C9.4,15.1,9.4,14.8,9.3,14.7z"/>
	</g>
</g>
<g>
	<g>
		<path d="M12.7,11.6h-1.3l-1.8,5.3H11l0.3-1h1.4l0.3,1h1.5L12.7,11.6z M11.5,14.9l0.5-1.6l0.5,1.6H11.5z"/>
	</g>
</g>
<g>
	<g>
		<polygon points="16.4,15.7 16.4,11.6 14.9,11.6 14.9,16.9 18.8,16.9 18.8,15.7 		"/>
	</g>
</g>
<g>
	<g>
		<polygon points="20.8,15.7 20.8,14.8 22.7,14.8 22.7,13.6 20.8,13.6 20.8,12.9 23,12.9 23,11.6 19.3,11.6 19.3,16.9 23.1,16.9 
			23.1,15.7 		"/>
	</g>
</g>
</svg>
