<?xml version="1.0" encoding="utf-8"?>
<!-- Generator: Adobe Illustrator 23.0.3, SVG Export Plug-In . SVG Version: 6.00 Build 0)  -->
<svg version="1.1" id="Слой_1" xmlns="http://www.w3.org/2000/svg" xmlns:xlink="http://www.w3.org/1999/xlink" x="0px" y="0px"
	 viewBox="0 0 28.3 28.3" style="enable-background:new 0 0 28.3 28.3;" xml:space="preserve">
<path d="M2.3,14.7c0.3,0.4,0.5,0.9,0.8,1.3c0.7,1.3,1.2,2.7,1.4,4.1c0.1,1.6,0.4,3.3,0.8,4.9c0.3,1.2,0.9,3.3,2.7,3.3
	c1.5,0,2.6-2.8,3.3-8.2c0.3-1.8,1-2,1.4-2c0,0,0,0,0,0c0,0.1,0,0.1,0.1,0.2c0.2,0.5,0.5,1.1,0.8,1.6c0.2,0.3,0.3,0.5,0.5,0.8
	c0.4,0.8,0.7,1.6,0.8,2.5c0.1,0.8,0.2,1.7,0.4,2.5c0,0,0,0,0,0s0,0,0,0c0,0.2,0.1,0.3,0.1,0.5c0.2,0.7,0.6,2.2,1.9,2.2
	c0.4,0,1.5,0,2.2-5.2c0.1-0.9,0.5-1.1,0.7-1.1l0.1,0c0.1,0,0.5,0.1,0.7,1.1c0.7,5.2,1.8,5.2,2.2,5.2c1.3,0,1.7-1.4,1.9-2.2
	c0.2-1,0.4-2,0.5-3c0.1-0.9,0.4-1.7,0.8-2.5c0.1-0.3,0.3-0.5,0.5-0.8c0.3-0.5,0.6-1,0.8-1.6c0.8-2,1-4.8-0.8-6.5
	c-0.5-0.5-1.2-0.9-1.9-1.1C26,7.2,25.4,4,23.4,2c-2.7-2.6-7.6-2.7-10.6-0.2C9.7-0.7,4.9-0.6,2.1,2c-2.8,2.7-2.4,7-1.2,10.2
	C1.3,13.1,1.7,13.9,2.3,14.7z M26.9,18c-0.2,0.5-0.5,1-0.8,1.4c-0.2,0.3-0.3,0.6-0.5,0.9c-0.5,0.9-0.8,1.8-0.9,2.8
	c-0.1,1-0.2,1.9-0.5,2.9c-0.2,0.7-0.4,1.5-0.9,1.5c-0.2-0.1-0.8-1-1.3-4.4c-0.2-1.1-0.6-1.7-1.4-1.9c-0.1,0-0.1,0-0.2,0c0,0,0,0,0,0
	c0,0,0,0-0.1,0c-0.9,0.1-1.4,0.7-1.6,1.9c-0.5,3.4-1.1,4.4-1.3,4.4c-0.5,0-0.8-0.8-1-1.5C16.2,25,16,24,15.9,23
	c-0.1-1-0.4-1.9-0.9-2.8c-0.2-0.3-0.3-0.6-0.5-0.9c-0.3-0.5-0.5-0.9-0.8-1.4c-0.7-1.7-0.9-4.1,0.6-5.4s4.2-1.4,5.7,0
	c0.1,0.1,1.9,1.8,3.5,1.8c0.3,0,0.5-0.2,0.5-0.5c0-0.3-0.2-0.5-0.5-0.5c-0.8,0-1.8-0.7-2.5-1.2c1-0.6,2.2-0.9,3.3-0.7
	c0.7,0.1,1.4,0.4,1.9,0.9C27.8,13.9,27.5,16.3,26.9,18z M2.8,2.7c2.4-2.3,7-2.3,9.7,0.1c0.2,0.2,3,2.9,5.5,2.9
	c0.3,0,0.5-0.2,0.5-0.5c0-0.3-0.2-0.5-0.5-0.5c-1.7,0-3.6-1.6-4.5-2.3c2.7-2,6.9-2,9.3,0.3c1.8,1.7,2.3,4.6,1.4,7.9
	c-1.4-0.1-2.7,0.2-3.8,1c-1.9-1.5-5-1.4-6.7,0.2c-1.5,1.4-1.6,3.5-1.1,5.3c-1.2,0.2-1.9,1.2-2.1,2.8c-0.8,5.9-1.9,7.4-2.4,7.4
	c-1,0-1.5-1.3-1.8-2.6c-0.4-1.6-0.7-3.1-0.8-4.7c-0.2-1.6-0.7-3.1-1.5-4.4c-0.3-0.5-0.5-0.9-0.8-1.4c-0.5-0.8-0.9-1.5-1.3-2.4
	C0.7,9,0.3,5,2.8,2.7z"/>
<path d="M2.7,9.9c0.1,0,0.3-0.1,0.4-0.2c0.1-0.1,0.1-0.3,0.1-0.4C2.1,5.4,4.6,4.1,4.7,4.1C4.9,4,5,3.7,4.9,3.5
	C4.8,3.2,4.5,3.1,4.3,3.2c0,0-3.3,1.7-2,6.3C2.3,9.7,2.5,9.9,2.7,9.9z"/>
<path d="M6.6,2.8c0,0.3-0.2,0.5-0.5,0.5c-0.3,0-0.5-0.2-0.5-0.5s0.2-0.5,0.5-0.5C6.4,2.4,6.6,2.6,6.6,2.8z"/>
<path d="M15.6,13c-0.7,0.4-1.9,1.8-1.1,4.2c0.1,0.2,0.2,0.3,0.4,0.3c0.2,0,0.3,0,0.4-0.2s0.1-0.3,0.1-0.5c-0.8-2.2,0.6-3,0.6-3
	c0.2-0.1,0.3-0.4,0.2-0.6C16.1,13,15.8,12.9,15.6,13z"/>
<path d="M17.5,12.8c0,0.3-0.2,0.5-0.5,0.5c-0.3,0-0.5-0.2-0.5-0.5s0.2-0.5,0.5-0.5S17.5,12.5,17.5,12.8z"/>
</svg>
