<svg width="203" height="42" viewBox="0 0 203 42" fill="none" xmlns="http://www.w3.org/2000/svg">
<path d="M19.7174 28.8789C19.4008 31.5859 18.3982 33.6777 16.7097 35.1543C15.0328 36.6191 12.799 37.3516 10.0082 37.3516C6.98288 37.3516 4.55558 36.2676 2.72631 34.0996C0.908772 31.9316 0 29.0312 0 25.3984V22.9375C0 20.5586 0.422139 18.4668 1.26642 16.6621C2.12242 14.8574 3.33021 13.4746 4.88978 12.5137C6.44935 11.541 8.25516 11.0547 10.3072 11.0547C13.0277 11.0547 15.2087 11.8164 16.8504 13.3398C18.492 14.8516 19.4477 16.9492 19.7174 19.6328H16.3227C16.0296 17.5938 15.3905 16.1172 14.4055 15.2031C13.4322 14.2891 12.0661 13.832 10.3072 13.832C8.14963 13.832 6.45521 14.6289 5.22397 16.2227C4.00446 17.8164 3.3947 20.084 3.3947 23.0254V25.5039C3.3947 28.2812 3.97514 30.4902 5.13602 32.1309C6.29691 33.7715 7.92097 34.5918 10.0082 34.5918C11.8844 34.5918 13.3208 34.1699 14.3175 33.3262C15.326 32.4707 15.9944 30.9883 16.3227 28.8789H19.7174Z" fill="url(#paint0_linear)"/>
<path d="M27.0873 20.2832C28.5296 18.5137 30.4057 17.6289 32.7158 17.6289C36.7378 17.6289 38.7664 19.8965 38.8016 24.4316V37H35.5476V24.4141C35.5359 23.043 35.2193 22.0293 34.5978 21.373C33.9881 20.7168 33.0324 20.3887 31.7308 20.3887C30.6754 20.3887 29.7491 20.6699 28.9517 21.2324C28.1543 21.7949 27.5328 22.5332 27.0873 23.4473V37H23.8333V10H27.0873V20.2832Z" fill="url(#paint1_linear)"/>
<path d="M47.2092 37H43.9552V17.9805H47.2092V37ZM43.6914 12.9355C43.6914 12.4082 43.8497 11.9629 44.1663 11.5996C44.4946 11.2363 44.9754 11.0547 45.6086 11.0547C46.2418 11.0547 46.7226 11.2363 47.0509 11.5996C47.3792 11.9629 47.5434 12.4082 47.5434 12.9355C47.5434 13.4629 47.3792 13.9023 47.0509 14.2539C46.7226 14.6055 46.2418 14.7812 45.6086 14.7812C44.9754 14.7812 44.4946 14.6055 44.1663 14.2539C43.8497 13.9023 43.6914 13.4629 43.6914 12.9355Z" fill="url(#paint2_linear)"/>
<path d="M55.6872 20.2832C57.1295 18.5137 59.0056 17.6289 61.3157 17.6289C65.3377 17.6289 67.3663 19.8965 67.4015 24.4316V37H64.1475V24.4141C64.1358 23.043 63.8192 22.0293 63.1977 21.373C62.588 20.7168 61.6323 20.3887 60.3307 20.3887C59.2753 20.3887 58.349 20.6699 57.5516 21.2324C56.7542 21.7949 56.1328 22.5332 55.6872 23.4473V37H52.4332V10H55.6872V20.2832Z" fill="url(#paint3_linear)"/>
<path d="M84.0232 35.1191C82.7568 36.6074 80.8982 37.3516 78.4475 37.3516C76.4189 37.3516 74.871 36.7656 73.804 35.5938C72.7486 34.4102 72.2151 32.6641 72.2034 30.3555V17.9805H75.4573V30.2676C75.4573 33.1504 76.6299 34.5918 78.9752 34.5918C81.4611 34.5918 83.1145 33.666 83.9353 31.8145V17.9805H87.1893V37H84.0936L84.0232 35.1191Z" fill="url(#paint4_linear)"/>
<path d="M153.539 31.9551C153.539 31.0762 153.205 30.3965 152.537 29.916C151.88 29.4238 150.725 29.002 149.072 28.6504C147.43 28.2988 146.123 27.877 145.149 27.3848C144.188 26.8926 143.473 26.3066 143.003 25.627C142.546 24.9473 142.318 24.1387 142.318 23.2012C142.318 21.6426 142.974 20.3242 144.287 19.2461C145.613 18.168 147.301 17.6289 149.353 17.6289C151.511 17.6289 153.258 18.1855 154.595 19.2988C155.943 20.4121 156.617 21.8359 156.617 23.5703H153.346C153.346 22.6797 152.965 21.9121 152.203 21.2676C151.452 20.623 150.502 20.3008 149.353 20.3008C148.169 20.3008 147.242 20.5586 146.574 21.0742C145.906 21.5898 145.572 22.2637 145.572 23.0957C145.572 23.8809 145.882 24.4727 146.504 24.8711C147.125 25.2695 148.245 25.6504 149.863 26.0137C151.493 26.377 152.812 26.8105 153.821 27.3145C154.829 27.8184 155.574 28.4277 156.055 29.1426C156.547 29.8457 156.793 30.707 156.793 31.7266C156.793 33.4258 156.113 34.791 154.753 35.8223C153.393 36.8418 151.628 37.3516 149.459 37.3516C147.934 37.3516 146.586 37.082 145.413 36.543C144.241 36.0039 143.32 35.2539 142.652 34.293C141.995 33.3203 141.667 32.2715 141.667 31.1465H144.921C144.979 32.2363 145.413 33.1035 146.222 33.748C147.043 34.3809 148.122 34.6973 149.459 34.6973C150.69 34.6973 151.675 34.4512 152.414 33.959C153.164 33.4551 153.539 32.7871 153.539 31.9551Z" fill="url(#paint5_linear)"/>
<path d="M164.286 20.2832C165.729 18.5137 167.605 17.6289 169.915 17.6289C173.937 17.6289 175.966 19.8965 176.001 24.4316V37H172.747V24.4141C172.735 23.043 172.418 22.0293 171.797 21.373C171.187 20.7168 170.231 20.3887 168.93 20.3887C167.875 20.3887 166.948 20.6699 166.151 21.2324C165.353 21.7949 164.732 22.5332 164.286 23.4473V37H161.032V10H164.286V20.2832Z" fill="url(#paint6_linear)"/>
<path d="M186.185 28.1934L184.144 30.3203V37H180.89V10H184.144V26.3301L185.886 24.2383L191.813 17.9805H195.771L188.366 25.9258L196.633 37H192.816L186.185 28.1934Z" fill="url(#paint7_linear)"/>
<path d="M202.666 37H199.412V17.9805H202.666V37ZM199.148 12.9355C199.148 12.4082 199.306 11.9629 199.623 11.5996C199.951 11.2363 200.432 11.0547 201.065 11.0547C201.698 11.0547 202.179 11.2363 202.507 11.5996C202.836 11.9629 203 12.4082 203 12.9355C203 13.4629 202.836 13.9023 202.507 14.2539C202.179 14.6055 201.698 14.7812 201.065 14.7812C200.432 14.7812 199.951 14.6055 199.623 14.2539C199.306 13.9023 199.148 13.4629 199.148 12.9355Z" fill="url(#paint8_linear)"/>
<path fill-rule="evenodd" clip-rule="evenodd" d="M123.177 41.8769C126.635 42.0774 129.892 39.9135 129.992 33.9331C129.877 30.7972 128.428 29.3947 126.531 27.5586C125.106 26.1797 123.429 24.5563 121.874 21.7706C118.701 16.0837 114.759 16.5211 114.759 16.5211C114.759 16.5211 110.951 16.0589 107.744 21.7706C106.204 24.5135 104.551 26.1687 103.141 27.5809C101.216 29.508 99.7427 30.9826 99.6271 34.1513C99.7267 40.1318 102.984 42.1865 106.441 41.9869C108.234 41.8834 109.77 41.3825 111.176 40.924C112.483 40.4981 113.677 40.1088 114.86 40.1088C116.045 40.1088 117.219 40.4745 118.505 40.8752C119.883 41.3043 121.389 41.7737 123.177 41.8769ZM121.739 27.5461C121.693 30.2963 120.19 31.2914 118.595 31.1992C117.77 31.1517 117.075 30.9359 116.439 30.7386C115.846 30.5543 115.304 30.3861 114.757 30.3861C114.212 30.3861 113.661 30.5651 113.058 30.761C112.409 30.9718 111.701 31.2022 110.874 31.2498C109.278 31.3416 107.776 30.3967 107.73 27.6465C107.783 26.1893 108.463 25.5112 109.351 24.625C110.002 23.9756 110.764 23.2144 111.475 21.953C112.954 19.3264 114.711 19.539 114.711 19.539H114.757C114.757 19.539 116.529 19.3379 117.994 21.953C118.711 23.2341 119.485 23.9807 120.142 24.6148C121.017 25.4591 121.686 26.1041 121.739 27.5461Z" fill="url(#paint9_linear)"/>
<path d="M113.54 7.33319C113.866 11.5348 111.647 15.125 108.585 15.3522C105.522 15.5794 102.776 12.3574 102.45 8.15588C102.124 3.95433 104.343 0.364099 107.406 0.136895C110.468 -0.0903079 113.215 3.13165 113.54 7.33319Z" fill="url(#paint10_linear)"/>
<path d="M127.244 9.0047C126.1 13.1104 122.747 15.7916 119.754 14.9934C116.761 14.1953 115.263 10.6515 116.407 6.5459C117.55 2.44021 120.904 -0.67271 123.896 0.125459C126.889 0.923628 128.388 4.89902 127.244 9.0047Z" fill="url(#paint11_linear)"/>
<path d="M126.221 16.9211C127.217 13.3458 130.138 11.011 132.744 11.7062C135.35 12.4012 136.655 15.8631 135.659 19.4382C134.663 23.0136 131.742 25.3484 129.136 24.6533C126.53 23.9582 125.225 20.4965 126.221 16.9211Z" fill="url(#paint12_linear)"/>
<path d="M97.2166 12.5693C99.8228 11.8742 102.743 14.2091 103.739 17.7843C104.735 21.3596 103.43 24.8215 100.824 25.5164C98.2177 26.2115 95.2974 23.8766 94.3013 20.3014C93.3051 16.7262 94.6104 13.2643 97.2166 12.5693Z" fill="url(#paint13_linear)"/>
<defs>
<linearGradient id="paint0_linear" x1="106.475" y1="2" x2="134.468" y2="45.5159" gradientUnits="userSpaceOnUse">
<stop stop-color="#6A4162"/>
<stop offset="1" stop-color="#45163C"/>
</linearGradient>
<linearGradient id="paint1_linear" x1="106.475" y1="2" x2="134.468" y2="45.5159" gradientUnits="userSpaceOnUse">
<stop stop-color="#6A4162"/>
<stop offset="1" stop-color="#45163C"/>
</linearGradient>
<linearGradient id="paint2_linear" x1="106.475" y1="2" x2="134.468" y2="45.5159" gradientUnits="userSpaceOnUse">
<stop stop-color="#6A4162"/>
<stop offset="1" stop-color="#45163C"/>
</linearGradient>
<linearGradient id="paint3_linear" x1="106.475" y1="2" x2="134.468" y2="45.5159" gradientUnits="userSpaceOnUse">
<stop stop-color="#6A4162"/>
<stop offset="1" stop-color="#45163C"/>
</linearGradient>
<linearGradient id="paint4_linear" x1="106.475" y1="2" x2="134.468" y2="45.5159" gradientUnits="userSpaceOnUse">
<stop stop-color="#6A4162"/>
<stop offset="1" stop-color="#45163C"/>
</linearGradient>
<linearGradient id="paint5_linear" x1="106.475" y1="2" x2="134.468" y2="45.5159" gradientUnits="userSpaceOnUse">
<stop stop-color="#6A4162"/>
<stop offset="1" stop-color="#45163C"/>
</linearGradient>
<linearGradient id="paint6_linear" x1="106.475" y1="2" x2="134.468" y2="45.5159" gradientUnits="userSpaceOnUse">
<stop stop-color="#6A4162"/>
<stop offset="1" stop-color="#45163C"/>
</linearGradient>
<linearGradient id="paint7_linear" x1="106.475" y1="2" x2="134.468" y2="45.5159" gradientUnits="userSpaceOnUse">
<stop stop-color="#6A4162"/>
<stop offset="1" stop-color="#45163C"/>
</linearGradient>
<linearGradient id="paint8_linear" x1="106.475" y1="2" x2="134.468" y2="45.5159" gradientUnits="userSpaceOnUse">
<stop stop-color="#6A4162"/>
<stop offset="1" stop-color="#45163C"/>
</linearGradient>
<linearGradient id="paint9_linear" x1="106.475" y1="2" x2="134.468" y2="45.5159" gradientUnits="userSpaceOnUse">
<stop stop-color="#6A4162"/>
<stop offset="1" stop-color="#45163C"/>
</linearGradient>
<linearGradient id="paint10_linear" x1="106.475" y1="2" x2="134.468" y2="45.5159" gradientUnits="userSpaceOnUse">
<stop stop-color="#6A4162"/>
<stop offset="1" stop-color="#45163C"/>
</linearGradient>
<linearGradient id="paint11_linear" x1="106.475" y1="2" x2="134.468" y2="45.5159" gradientUnits="userSpaceOnUse">
<stop stop-color="#6A4162"/>
<stop offset="1" stop-color="#45163C"/>
</linearGradient>
<linearGradient id="paint12_linear" x1="106.475" y1="2" x2="134.468" y2="45.5159" gradientUnits="userSpaceOnUse">
<stop stop-color="#6A4162"/>
<stop offset="1" stop-color="#45163C"/>
</linearGradient>
<linearGradient id="paint13_linear" x1="106.475" y1="2" x2="134.468" y2="45.5159" gradientUnits="userSpaceOnUse">
<stop stop-color="#6A4162"/>
<stop offset="1" stop-color="#45163C"/>
</linearGradient>
</defs>
</svg>
