<svg width="212" height="42" viewBox="0 0 212 42" fill="none" xmlns="http://www.w3.org/2000/svg">
<path fill-rule="evenodd" clip-rule="evenodd" d="M126.21 41.8769C129.668 42.0774 132.925 39.9135 133.025 33.9331C132.91 30.7972 131.461 29.3947 129.564 27.5586C128.139 26.1797 126.462 24.5563 124.907 21.7706C121.734 16.0837 117.792 16.5211 117.792 16.5211C117.792 16.5211 113.984 16.0589 110.777 21.7706C109.237 24.5135 107.584 26.1687 106.174 27.5809C104.249 29.508 102.776 30.9826 102.66 34.1513C102.76 40.1318 106.017 42.1865 109.474 41.9869C111.267 41.8834 112.803 41.3825 114.209 40.924C115.516 40.4981 116.71 40.1088 117.893 40.1088C119.078 40.1088 120.252 40.4745 121.538 40.8752C122.916 41.3043 124.422 41.7737 126.21 41.8769ZM124.772 27.5461C124.726 30.2963 123.223 31.2914 121.628 31.1992C120.803 31.1517 120.108 30.9359 119.472 30.7386C118.879 30.5543 118.337 30.3861 117.79 30.3861C117.245 30.3861 116.694 30.5651 116.091 30.761C115.442 30.9718 114.734 31.2022 113.907 31.2498C112.311 31.3416 110.809 30.3967 110.763 27.6465C110.816 26.1893 111.496 25.5112 112.384 24.625C113.035 23.9756 113.797 23.2144 114.508 21.953C115.987 19.3264 117.744 19.539 117.744 19.539H117.79C117.79 19.539 119.562 19.3379 121.027 21.953C121.744 23.2341 122.518 23.9807 123.175 24.6148C124.05 25.4591 124.719 26.1041 124.772 27.5461Z" fill="url(#paint0_linear)"/>
<path d="M116.573 7.33319C116.899 11.5348 114.68 15.125 111.618 15.3522C108.555 15.5794 105.809 12.3574 105.483 8.15588C105.157 3.95433 107.376 0.364099 110.439 0.136895C113.501 -0.0903077 116.248 3.13165 116.573 7.33319Z" fill="url(#paint1_linear)"/>
<path d="M130.277 9.0047C129.133 13.1104 125.78 15.7916 122.787 14.9934C119.794 14.1953 118.296 10.6515 119.44 6.5459C120.583 2.44021 123.937 -0.67271 126.929 0.125459C129.922 0.923628 131.421 4.89902 130.277 9.0047Z" fill="url(#paint2_linear)"/>
<path d="M129.254 16.9211C130.25 13.3458 133.171 11.011 135.777 11.7062C138.383 12.4012 139.688 15.8631 138.692 19.4382C137.696 23.0136 134.775 25.3484 132.169 24.6533C129.563 23.9582 128.258 20.4965 129.254 16.9211Z" fill="url(#paint3_linear)"/>
<path d="M100.25 12.5693C102.856 11.8742 105.776 14.2091 106.772 17.7843C107.768 21.3596 106.463 24.8215 103.857 25.5164C101.251 26.2115 98.3304 23.8766 97.3343 20.3014C96.3381 16.7262 97.6434 13.2643 100.25 12.5693Z" fill="url(#paint4_linear)"/>
<path d="M19.7969 29.8789C19.4805 32.5859 18.4785 34.6777 16.791 36.1543C15.1152 37.6191 12.8828 38.3516 10.0938 38.3516C7.07031 38.3516 4.64453 37.2676 2.81641 35.0996C1 32.9316 0.0917969 30.0312 0.0917969 26.3984V23.9375C0.0917969 21.5586 0.513672 19.4668 1.35742 17.6621C2.21289 15.8574 3.41992 14.4746 4.97852 13.5137C6.53711 12.541 8.3418 12.0547 10.3926 12.0547C13.1113 12.0547 15.291 12.8164 16.9316 14.3398C18.5723 15.8516 19.5273 17.9492 19.7969 20.6328H16.4043C16.1113 18.5938 15.4727 17.1172 14.4883 16.2031C13.5156 15.2891 12.1504 14.832 10.3926 14.832C8.23633 14.832 6.54297 15.6289 5.3125 17.2227C4.09375 18.8164 3.48438 21.084 3.48438 24.0254V26.5039C3.48438 29.2812 4.06445 31.4902 5.22461 33.1309C6.38477 34.7715 8.00781 35.5918 10.0938 35.5918C11.9688 35.5918 13.4043 35.1699 14.4004 34.3262C15.4082 33.4707 16.0762 31.9883 16.4043 29.8789H19.7969Z" fill="url(#paint5_linear)"/>
<path d="M27.1621 21.2832C28.6035 19.5137 30.4785 18.6289 32.7871 18.6289C36.8066 18.6289 38.834 20.8965 38.8691 25.4316V38H35.6172V25.4141C35.6055 24.043 35.2891 23.0293 34.668 22.373C34.0586 21.7168 33.1035 21.3887 31.8027 21.3887C30.748 21.3887 29.8223 21.6699 29.0254 22.2324C28.2285 22.7949 27.6074 23.5332 27.1621 24.4473V38H23.9102V11H27.1621V21.2832Z" fill="url(#paint6_linear)"/>
<path d="M47.2715 38H44.0195V18.9805H47.2715V38ZM43.7559 13.9355C43.7559 13.4082 43.9141 12.9629 44.2305 12.5996C44.5586 12.2363 45.0391 12.0547 45.6719 12.0547C46.3047 12.0547 46.7852 12.2363 47.1133 12.5996C47.4414 12.9629 47.6055 13.4082 47.6055 13.9355C47.6055 14.4629 47.4414 14.9023 47.1133 15.2539C46.7852 15.6055 46.3047 15.7812 45.6719 15.7812C45.0391 15.7812 44.5586 15.6055 44.2305 15.2539C43.9141 14.9023 43.7559 14.4629 43.7559 13.9355Z" fill="url(#paint7_linear)"/>
<path d="M55.7441 21.2832C57.1855 19.5137 59.0605 18.6289 61.3691 18.6289C65.3887 18.6289 67.416 20.8965 67.4512 25.4316V38H64.1992V25.4141C64.1875 24.043 63.8711 23.0293 63.25 22.373C62.6406 21.7168 61.6855 21.3887 60.3848 21.3887C59.3301 21.3887 58.4043 21.6699 57.6074 22.2324C56.8105 22.7949 56.1895 23.5332 55.7441 24.4473V38H52.4922V11H55.7441V21.2832Z" fill="url(#paint8_linear)"/>
<path d="M84.0625 36.1191C82.7969 37.6074 80.9395 38.3516 78.4902 38.3516C76.4629 38.3516 74.916 37.7656 73.8496 36.5938C72.7949 35.4102 72.2617 33.6641 72.25 31.3555V18.9805H75.502V31.2676C75.502 34.1504 76.6738 35.5918 79.0176 35.5918C81.502 35.5918 83.1543 34.666 83.9746 32.8145V18.9805H87.2266V38H84.1328L84.0625 36.1191Z" fill="url(#paint9_linear)"/>
<path d="M156.512 26.5918C153.617 25.7598 151.508 24.7402 150.184 23.5332C148.871 22.3145 148.215 20.8145 148.215 19.0332C148.215 17.0176 149.018 15.3535 150.623 14.041C152.24 12.7168 154.338 12.0547 156.916 12.0547C158.674 12.0547 160.238 12.3945 161.609 13.0742C162.992 13.7539 164.059 14.6914 164.809 15.8867C165.57 17.082 165.951 18.3887 165.951 19.8066H162.559C162.559 18.2598 162.066 17.0469 161.082 16.168C160.098 15.2773 158.709 14.832 156.916 14.832C155.252 14.832 153.951 15.2012 153.014 15.9395C152.088 16.666 151.625 17.6797 151.625 18.9805C151.625 20.0234 152.064 20.9082 152.943 21.6348C153.834 22.3496 155.34 23.0059 157.461 23.6035C159.594 24.2012 161.258 24.8633 162.453 25.5898C163.66 26.3047 164.551 27.1426 165.125 28.1035C165.711 29.0645 166.004 30.1953 166.004 31.4961C166.004 33.5703 165.195 35.2344 163.578 36.4883C161.961 37.7305 159.799 38.3516 157.092 38.3516C155.334 38.3516 153.693 38.0176 152.17 37.3496C150.646 36.6699 149.469 35.7441 148.637 34.5723C147.816 33.4004 147.406 32.0703 147.406 30.582H150.799C150.799 32.1289 151.367 33.3535 152.504 34.2559C153.652 35.1465 155.182 35.5918 157.092 35.5918C158.873 35.5918 160.238 35.2285 161.188 34.502C162.137 33.7754 162.611 32.7852 162.611 31.5312C162.611 30.2773 162.172 29.3105 161.293 28.6309C160.414 27.9395 158.82 27.2598 156.512 26.5918Z" fill="url(#paint10_linear)"/>
<path d="M173.088 21.2832C174.529 19.5137 176.404 18.6289 178.713 18.6289C182.732 18.6289 184.76 20.8965 184.795 25.4316V38H181.543V25.4141C181.531 24.043 181.215 23.0293 180.594 22.373C179.984 21.7168 179.029 21.3887 177.729 21.3887C176.674 21.3887 175.748 21.6699 174.951 22.2324C174.154 22.7949 173.533 23.5332 173.088 24.4473V38H169.836V11H173.088V21.2832Z" fill="url(#paint11_linear)"/>
<path d="M194.973 29.1934L192.934 31.3203V38H189.682V11H192.934V27.3301L194.674 25.2383L200.598 18.9805H204.553L197.152 26.9258L205.414 38H201.6L194.973 29.1934Z" fill="url(#paint12_linear)"/>
<path d="M211.443 38H208.191V18.9805H211.443V38ZM207.928 13.9355C207.928 13.4082 208.086 12.9629 208.402 12.5996C208.73 12.2363 209.211 12.0547 209.844 12.0547C210.477 12.0547 210.957 12.2363 211.285 12.5996C211.613 12.9629 211.777 13.4082 211.777 13.9355C211.777 14.4629 211.613 14.9023 211.285 15.2539C210.957 15.6055 210.477 15.7812 209.844 15.7812C209.211 15.7812 208.73 15.6055 208.402 15.2539C208.086 14.9023 207.928 14.4629 207.928 13.9355Z" fill="url(#paint13_linear)"/>
<defs>
<linearGradient id="paint0_linear" x1="-44" y1="-7.00001" x2="304" y2="57.5" gradientUnits="userSpaceOnUse">
<stop stop-color="#6A4162"/>
<stop offset="1" stop-color="#45163C"/>
</linearGradient>
<linearGradient id="paint1_linear" x1="-44" y1="-7.00001" x2="304" y2="57.5" gradientUnits="userSpaceOnUse">
<stop stop-color="#6A4162"/>
<stop offset="1" stop-color="#45163C"/>
</linearGradient>
<linearGradient id="paint2_linear" x1="-44" y1="-7.00001" x2="304" y2="57.5" gradientUnits="userSpaceOnUse">
<stop stop-color="#6A4162"/>
<stop offset="1" stop-color="#45163C"/>
</linearGradient>
<linearGradient id="paint3_linear" x1="-44" y1="-7.00001" x2="304" y2="57.5" gradientUnits="userSpaceOnUse">
<stop stop-color="#6A4162"/>
<stop offset="1" stop-color="#45163C"/>
</linearGradient>
<linearGradient id="paint4_linear" x1="-44" y1="-7.00001" x2="304" y2="57.5" gradientUnits="userSpaceOnUse">
<stop stop-color="#6A4162"/>
<stop offset="1" stop-color="#45163C"/>
</linearGradient>
<linearGradient id="paint5_linear" x1="-44" y1="-7.00001" x2="304" y2="57.5" gradientUnits="userSpaceOnUse">
<stop stop-color="#6A4162"/>
<stop offset="1" stop-color="#45163C"/>
</linearGradient>
<linearGradient id="paint6_linear" x1="-44" y1="-7.00001" x2="304" y2="57.5" gradientUnits="userSpaceOnUse">
<stop stop-color="#6A4162"/>
<stop offset="1" stop-color="#45163C"/>
</linearGradient>
<linearGradient id="paint7_linear" x1="-44" y1="-7.00001" x2="304" y2="57.5" gradientUnits="userSpaceOnUse">
<stop stop-color="#6A4162"/>
<stop offset="1" stop-color="#45163C"/>
</linearGradient>
<linearGradient id="paint8_linear" x1="-44" y1="-7.00001" x2="304" y2="57.5" gradientUnits="userSpaceOnUse">
<stop stop-color="#6A4162"/>
<stop offset="1" stop-color="#45163C"/>
</linearGradient>
<linearGradient id="paint9_linear" x1="-44" y1="-7.00001" x2="304" y2="57.5" gradientUnits="userSpaceOnUse">
<stop stop-color="#6A4162"/>
<stop offset="1" stop-color="#45163C"/>
</linearGradient>
<linearGradient id="paint10_linear" x1="-44" y1="-7.00001" x2="304" y2="57.5" gradientUnits="userSpaceOnUse">
<stop stop-color="#6A4162"/>
<stop offset="1" stop-color="#45163C"/>
</linearGradient>
<linearGradient id="paint11_linear" x1="-44" y1="-7.00001" x2="304" y2="57.5" gradientUnits="userSpaceOnUse">
<stop stop-color="#6A4162"/>
<stop offset="1" stop-color="#45163C"/>
</linearGradient>
<linearGradient id="paint12_linear" x1="-44" y1="-7.00001" x2="304" y2="57.5" gradientUnits="userSpaceOnUse">
<stop stop-color="#6A4162"/>
<stop offset="1" stop-color="#45163C"/>
</linearGradient>
<linearGradient id="paint13_linear" x1="-44" y1="-7.00001" x2="304" y2="57.5" gradientUnits="userSpaceOnUse">
<stop stop-color="#6A4162"/>
<stop offset="1" stop-color="#45163C"/>
</linearGradient>
</defs>
</svg>
