<svg width="642" height="106" viewBox="0 0 642 106" fill="none" xmlns="http://www.w3.org/2000/svg">
<path d="M0 0H642V76C642 92.5685 628.569 106 612 106H30C13.4315 106 0 92.5685 0 76V0Z" fill="#FED1D1"/>
<path d="M110.359 70.48C106.967 70.48 103.895 69.744 101.143 68.272C98.423 66.768 96.279 64.704 94.711 62.08C93.175 59.456 92.407 56.496 92.407 53.2C92.407 49.904 93.191 46.944 94.759 44.32C96.327 41.696 98.471 39.648 101.191 38.176C103.943 36.672 107.015 35.92 110.407 35.92C113.159 35.92 115.671 36.4 117.943 37.36C120.215 38.32 122.135 39.712 123.703 41.536L119.671 45.328C117.239 42.704 114.247 41.392 110.695 41.392C108.391 41.392 106.327 41.904 104.503 42.928C102.679 43.92 101.255 45.312 100.231 47.104C99.207 48.896 98.695 50.928 98.695 53.2C98.695 55.472 99.207 57.504 100.231 59.296C101.255 61.088 102.679 62.496 104.503 63.52C106.327 64.512 108.391 65.008 110.695 65.008C114.247 65.008 117.239 63.68 119.671 61.024L123.703 64.864C122.135 66.688 120.199 68.08 117.895 69.04C115.623 70 113.111 70.48 110.359 70.48ZM147.97 44.08C151.202 44.08 153.794 45.024 155.746 46.912C157.698 48.8 158.674 51.6 158.674 55.312V70H152.674V56.08C152.674 53.84 152.146 52.16 151.09 51.04C150.034 49.888 148.53 49.312 146.578 49.312C144.37 49.312 142.626 49.984 141.346 51.328C140.066 52.64 139.426 54.544 139.426 57.04V70H133.426V34.384H139.426V47.344C140.418 46.288 141.634 45.488 143.074 44.944C144.546 44.368 146.178 44.08 147.97 44.08ZM170.605 44.368H176.605V70H170.605V44.368ZM173.629 40.144C172.541 40.144 171.629 39.808 170.893 39.136C170.157 38.432 169.789 37.568 169.789 36.544C169.789 35.52 170.157 34.672 170.893 34C171.629 33.296 172.541 32.944 173.629 32.944C174.717 32.944 175.629 33.28 176.365 33.952C177.101 34.592 177.469 35.408 177.469 36.4C177.469 37.456 177.101 38.352 176.365 39.088C175.661 39.792 174.749 40.144 173.629 40.144ZM219.232 36.4V70H212.992V55.6H195.616V70H189.376V36.4H195.616V50.272H212.992V36.4H219.232ZM256.796 44.368V70H251.084V66.736C250.124 67.888 248.924 68.784 247.484 69.424C246.044 70.032 244.492 70.336 242.828 70.336C239.404 70.336 236.7 69.392 234.716 67.504C232.764 65.584 231.788 62.752 231.788 59.008V44.368H237.788V58.192C237.788 60.496 238.3 62.224 239.324 63.376C240.38 64.496 241.868 65.056 243.788 65.056C245.932 65.056 247.628 64.4 248.876 63.088C250.156 61.744 250.796 59.824 250.796 57.328V44.368H256.796ZM278.764 44.08C282.54 44.08 285.42 44.992 287.404 46.816C289.42 48.608 290.428 51.328 290.428 54.976V70H284.764V66.88C284.028 68 282.972 68.864 281.596 69.472C280.252 70.048 278.62 70.336 276.7 70.336C274.78 70.336 273.1 70.016 271.66 69.376C270.22 68.704 269.1 67.792 268.3 66.64C267.532 65.456 267.148 64.128 267.148 62.656C267.148 60.352 267.996 58.512 269.692 57.136C271.42 55.728 274.124 55.024 277.804 55.024H284.428V54.64C284.428 52.848 283.884 51.472 282.796 50.512C281.74 49.552 280.156 49.072 278.044 49.072C276.604 49.072 275.18 49.296 273.772 49.744C272.396 50.192 271.228 50.816 270.268 51.616L267.916 47.248C269.26 46.224 270.876 45.44 272.764 44.896C274.652 44.352 276.652 44.08 278.764 44.08ZM277.948 65.968C279.452 65.968 280.78 65.632 281.932 64.96C283.116 64.256 283.948 63.264 284.428 61.984V59.008H278.236C274.78 59.008 273.052 60.144 273.052 62.416C273.052 63.504 273.484 64.368 274.348 65.008C275.212 65.648 276.412 65.968 277.948 65.968ZM310.368 70.336C308.288 70.336 306.256 70.064 304.272 69.52C302.288 68.976 300.704 68.288 299.52 67.456L301.824 62.896C302.976 63.664 304.352 64.288 305.952 64.768C307.584 65.216 309.184 65.44 310.752 65.44C314.336 65.44 316.128 64.496 316.128 62.608C316.128 61.712 315.664 61.088 314.736 60.736C313.84 60.384 312.384 60.048 310.368 59.728C308.256 59.408 306.528 59.04 305.184 58.624C303.872 58.208 302.72 57.488 301.728 56.464C300.768 55.408 300.288 53.952 300.288 52.096C300.288 49.664 301.296 47.728 303.312 46.288C305.36 44.816 308.112 44.08 311.568 44.08C313.328 44.08 315.088 44.288 316.848 44.704C318.608 45.088 320.048 45.616 321.168 46.288L318.864 50.848C316.688 49.568 314.24 48.928 311.52 48.928C309.76 48.928 308.416 49.2 307.488 49.744C306.592 50.256 306.144 50.944 306.144 51.808C306.144 52.768 306.624 53.456 307.584 53.872C308.576 54.256 310.096 54.624 312.144 54.976C314.192 55.296 315.872 55.664 317.184 56.08C318.496 56.496 319.616 57.2 320.544 58.192C321.504 59.184 321.984 60.592 321.984 62.416C321.984 64.816 320.944 66.736 318.864 68.176C316.784 69.616 313.952 70.336 310.368 70.336ZM346.015 44.08C349.247 44.08 351.839 45.024 353.791 46.912C355.743 48.8 356.719 51.6 356.719 55.312V70H350.719V56.08C350.719 53.84 350.191 52.16 349.135 51.04C348.079 49.888 346.575 49.312 344.623 49.312C342.415 49.312 340.671 49.984 339.391 51.328C338.111 52.64 337.471 54.544 337.471 57.04V70H331.471V34.384H337.471V47.344C338.463 46.288 339.679 45.488 341.119 44.944C342.591 44.368 344.223 44.08 346.015 44.08ZM379.114 59.008L374.65 63.232V70H368.65V34.384H374.65V55.888L387.082 44.368H394.282L383.578 55.12L395.29 70H387.994L379.114 59.008ZM403.252 44.368H409.252V70H403.252V44.368ZM406.276 40.144C405.188 40.144 404.276 39.808 403.54 39.136C402.804 38.432 402.436 37.568 402.436 36.544C402.436 35.52 402.804 34.672 403.54 34C404.276 33.296 405.188 32.944 406.276 32.944C407.364 32.944 408.276 33.28 409.012 33.952C409.748 34.592 410.116 35.408 410.116 36.4C410.116 37.456 409.748 38.352 409.012 39.088C408.308 39.792 407.396 40.144 406.276 40.144ZM423.367 70.336C422.279 70.336 421.351 69.968 420.583 69.232C419.815 68.464 419.431 67.504 419.431 66.352C419.431 65.168 419.799 64.208 420.535 63.472C421.303 62.736 422.247 62.368 423.367 62.368C424.487 62.368 425.415 62.736 426.151 63.472C426.919 64.208 427.303 65.168 427.303 66.352C427.303 67.504 426.919 68.464 426.151 69.232C425.383 69.968 424.455 70.336 423.367 70.336ZM448.777 70.336C446.121 70.336 443.737 69.776 441.625 68.656C439.513 67.536 437.865 65.984 436.681 64C435.497 61.984 434.905 59.712 434.905 57.184C434.905 54.656 435.497 52.4 436.681 50.416C437.865 48.432 439.497 46.88 441.577 45.76C443.689 44.64 446.089 44.08 448.777 44.08C451.305 44.08 453.513 44.592 455.401 45.616C457.321 46.64 458.761 48.112 459.721 50.032L455.113 52.72C454.377 51.536 453.449 50.656 452.329 50.08C451.241 49.472 450.041 49.168 448.729 49.168C446.489 49.168 444.633 49.904 443.161 51.376C441.689 52.816 440.953 54.752 440.953 57.184C440.953 59.616 441.673 61.568 443.113 63.04C444.585 64.48 446.457 65.2 448.729 65.2C450.041 65.2 451.241 64.912 452.329 64.336C453.449 63.728 454.377 62.832 455.113 61.648L459.721 64.336C458.729 66.256 457.273 67.744 455.353 68.8C453.465 69.824 451.273 70.336 448.777 70.336ZM480.372 70.336C477.78 70.336 475.444 69.776 473.364 68.656C471.284 67.536 469.652 65.984 468.468 64C467.316 61.984 466.74 59.712 466.74 57.184C466.74 54.656 467.316 52.4 468.468 50.416C469.652 48.432 471.284 46.88 473.364 45.76C475.444 44.64 477.78 44.08 480.372 44.08C482.996 44.08 485.348 44.64 487.428 45.76C489.508 46.88 491.124 48.432 492.276 50.416C493.46 52.4 494.052 54.656 494.052 57.184C494.052 59.712 493.46 61.984 492.276 64C491.124 65.984 489.508 67.536 487.428 68.656C485.348 69.776 482.996 70.336 480.372 70.336ZM480.372 65.2C482.58 65.2 484.404 64.464 485.844 62.992C487.284 61.52 488.004 59.584 488.004 57.184C488.004 54.784 487.284 52.848 485.844 51.376C484.404 49.904 482.58 49.168 480.372 49.168C478.164 49.168 476.34 49.904 474.9 51.376C473.492 52.848 472.788 54.784 472.788 57.184C472.788 59.584 473.492 61.52 474.9 62.992C476.34 64.464 478.164 65.2 480.372 65.2ZM536.462 44.08C539.694 44.08 542.254 45.024 544.142 46.912C546.03 48.768 546.974 51.568 546.974 55.312V70H540.974V56.08C540.974 53.84 540.478 52.16 539.486 51.04C538.494 49.888 537.07 49.312 535.214 49.312C533.198 49.312 531.582 49.984 530.366 51.328C529.15 52.64 528.542 54.528 528.542 56.992V70H522.542V56.08C522.542 53.84 522.046 52.16 521.054 51.04C520.062 49.888 518.638 49.312 516.782 49.312C514.734 49.312 513.102 49.968 511.886 51.28C510.702 52.592 510.11 54.496 510.11 56.992V70H504.11V44.368H509.822V47.632C510.782 46.48 511.982 45.6 513.422 44.992C514.862 44.384 516.462 44.08 518.222 44.08C520.142 44.08 521.838 44.448 523.31 45.184C524.814 45.888 525.998 46.944 526.862 48.352C527.918 47.008 529.278 45.968 530.942 45.232C532.606 44.464 534.446 44.08 536.462 44.08Z" fill="#6A4162"/>
</svg>
