<svg width="92" height="78" viewBox="0 0 92 78" fill="none" xmlns="http://www.w3.org/2000/svg">
<path fill-rule="evenodd" clip-rule="evenodd" d="M91 6.19482C91 9.06384 88.6742 11.3896 85.8052 11.3896H6.19482C3.3258 11.3896 1 9.06384 1 6.19482C1 3.3258 3.3258 1 6.19482 1H85.8052C88.6742 1 91 3.3258 91 6.19482Z" fill="#FED1D1" stroke="#6A4162"/>
<path fill-rule="evenodd" clip-rule="evenodd" d="M91 39.1948C91 42.0638 88.6742 44.3896 85.8052 44.3896H6.19482C3.3258 44.3896 1 42.0638 1 39.1948C1 36.3258 3.3258 34 6.19482 34H85.8052C88.6742 34 91 36.3258 91 39.1948Z" fill="#FED1D1" stroke="#6A4162"/>
<path fill-rule="evenodd" clip-rule="evenodd" d="M91 72.1948C91 75.0638 88.6742 77.3896 85.8052 77.3896H6.19482C3.3258 77.3896 1 75.0638 1 72.1948C1 69.3258 3.3258 67 6.19482 67H85.8052C88.6742 67 91 69.3258 91 72.1948Z" fill="#FED1D1" stroke="#6A4162"/>
</svg>
