<?xml version="1.0" encoding="utf-8"?>
<!-- Generator: Adobe Illustrator 23.0.3, SVG Export Plug-In . SVG Version: 6.00 Build 0)  -->
<svg version="1.1" id="Capa_1" xmlns="http://www.w3.org/2000/svg" xmlns:xlink="http://www.w3.org/1999/xlink" x="0px" y="0px"
	 viewBox="0 0 534 534" style="enable-background:new 0 0 534 534;" xml:space="preserve">
<style type="text/css">
	.st0{fill:#FED1D1;stroke:#6A4162;stroke-width:9;stroke-miterlimit:10;}
</style>
<g>
	<g>
		<path class="st0" d="M267,11C125.8,11,11,125.8,11,267s114.8,256,256,256s256-114.9,256-256S408.2,11,267,11z M267,483.3
			c-119.3,0-216.3-97-216.3-216.3S147.7,50.7,267,50.7c119.3,0,216.3,97,216.3,216.3S386.3,483.3,267,483.3z"/>
	</g>
</g>
<g>
	<g>
		<path class="st0" d="M430.6,310.3L287.1,166.8c-11.2-11.1-29.3-11.1-40.5,0L103.1,310.3c-9.2,10.7-9.2,26.6,0,37.3
			c10.3,12,28.4,13.4,40.5,3.1l123.2-123.1l123.4,123.2c11.2,11.1,29.3,11.1,40.5,0C441.8,339.6,441.8,321.5,430.6,310.3z"/>
	</g>
</g>
</svg>
