<svg width="50" height="51" viewBox="0 0 50 51" fill="none" xmlns="http://www.w3.org/2000/svg">
<circle cx="25" cy="25.5" r="25" fill="#F7D4F4"/>
<path d="M25.0072 17.0759C20.3558 17.0759 16.6493 20.8552 16.6493 25.4339C16.6493 30.0852 20.3558 33.7918 25.0072 33.7918C29.5859 33.7918 33.3651 30.0852 33.3651 25.4339C33.3651 20.8552 29.5859 17.0759 25.0072 17.0759ZM25.0072 30.8847C22.0274 30.8847 19.5564 28.4863 19.5564 25.4339C19.5564 22.4541 21.9547 20.0557 25.0072 20.0557C27.9869 20.0557 30.3853 22.4541 30.3853 25.4339C30.3853 28.4863 27.9869 30.8847 25.0072 30.8847ZM35.6181 16.7852C35.6181 15.6951 34.746 14.8229 33.6558 14.8229C32.5656 14.8229 31.6935 15.6951 31.6935 16.7852C31.6935 17.8754 32.5656 18.7475 33.6558 18.7475C34.746 18.7475 35.6181 17.8754 35.6181 16.7852ZM41.1416 18.7475C40.9962 16.1311 40.4148 13.8055 38.5252 11.9158C36.6356 10.0262 34.3099 9.4448 31.6935 9.29945C29.0044 9.15409 20.9372 9.15409 18.2482 9.29945C15.6318 9.4448 13.3788 10.0262 11.4165 11.9158C9.52686 13.8055 8.94544 16.1311 8.80009 18.7475C8.65473 21.4366 8.65473 29.5038 8.80009 32.1929C8.94544 34.8093 9.52686 37.0623 11.4165 39.0245C13.3788 40.9142 15.6318 41.4956 18.2482 41.6409C20.9372 41.7863 29.0044 41.7863 31.6935 41.6409C34.3099 41.4956 36.6356 40.9142 38.5252 39.0245C40.4148 37.0623 40.9962 34.8093 41.1416 32.1929C41.2869 29.5038 41.2869 21.4366 41.1416 18.7475ZM37.6531 35.0273C37.1443 36.4808 35.9815 37.571 34.6006 38.1524C32.4203 39.0245 27.3329 38.8065 25.0072 38.8065C22.6088 38.8065 17.5214 39.0245 15.4137 38.1524C13.9602 37.571 12.87 36.4808 12.2886 35.0273C11.4165 32.9196 11.6345 27.8322 11.6345 25.4339C11.6345 23.1082 11.4165 18.0207 12.2886 15.8404C12.87 14.4595 13.9602 13.3694 15.4137 12.788C17.5214 11.9158 22.6088 12.1339 25.0072 12.1339C27.3329 12.1339 32.4203 11.9158 34.6006 12.788C35.9815 13.2967 37.0716 14.4595 37.6531 15.8404C38.5252 18.0207 38.3072 23.1082 38.3072 25.4339C38.3072 27.8322 38.5252 32.9196 37.6531 35.0273Z" fill="#CB61B6"/>
</svg>
