<?xml version="1.0" encoding="utf-8"?>
<!-- Generator: Adobe Illustrator 23.0.3, SVG Export Plug-In . SVG Version: 6.00 Build 0)  -->
<svg version="1.1" id="Слой_1" xmlns="http://www.w3.org/2000/svg" xmlns:xlink="http://www.w3.org/1999/xlink" x="0px" y="0px"
	 viewBox="0 0 455 87.7" style="enable-background:new 0 0 455 87.7;" xml:space="preserve">
<style type="text/css">
	.st0{display:none;}
	.st1{display:inline;fill:#C23083;}
	.st2{display:inline;fill:#FFFFFF;}
	.st3{display:inline;fill:#FDFFFF;}
	.st4{fill:url(#SVGID_1_);}
	.st5{fill:url(#SVGID_2_);}
	.st6{fill:url(#SVGID_3_);}
	.st7{fill:url(#SVGID_4_);}
	.st8{fill:url(#SVGID_5_);}
	.st9{fill:url(#SVGID_6_);}
	.st10{fill:url(#SVGID_7_);}
	.st11{fill:url(#SVGID_8_);}
	.st12{fill:url(#SVGID_9_);}
	.st13{fill:url(#SVGID_10_);}
	.st14{fill:url(#SVGID_11_);}
	.st15{fill:url(#SVGID_12_);}
	.st16{fill:url(#SVGID_13_);}
	.st17{fill:url(#SVGID_14_);}
	.st18{fill:url(#SVGID_15_);}
	.st19{fill:none;}
	.st20{display:inline;}
	.st21{font-family:'TektonPro-Bold';}
	.st22{font-size:76px;}
</style>
<g id="Глав" class="st0">
	<circle class="st1" cx="42" cy="59" r="38"/>
	<path class="st1" d="M42,101C18.8,101,0,82.2,0,59s18.8-42,42-42s42,18.8,42,42S65.2,101,42,101z M42,19.2C20.1,19.2,2.2,37,2.2,59
		S20.1,98.8,42,98.8S81.8,81,81.8,59S63.9,19.2,42,19.2z"/>
	<path class="st2" d="M66.1,41.9c0-0.3-0.1-0.7-0.1-1c-0.1-0.5,0-1-0.3-1.4c-0.9-1.2-2-0.5-2.9,0.2c-1.2,0.8-2.5,1.6-3.8,2.4
		c-1.9,1.2-3.8,2.4-5.7,3.5c-0.6,0.4-1.2,1-1.9,1.2c-0.8,0.3-1.6-0.3-2.4-0.5c-1.8-0.6-3.6-0.9-5.5-1.1c-2.5-0.2-5,0-7.4,0.5
		c-1.2,0.3-2.4,0.8-3.6,1.1c-1,0.2-1.9-0.7-2.6-1.2c-1.2-0.7-2.4-1.4-3.6-2.1c-1.7-1-3.3-2.1-4.9-3.1c-0.7-0.6-1.5-1.5-2.5-1.6
		c-1.3-0.1-1.7,1.2-1.7,2.3c-0.3,3.7-0.9,7.7,0.1,11.4c1.1,3.7,4.1,6.5,7.8,7.6c0.1,0,0.2,0.1,0.3,0.2c0.1,0.1,0.1,0.2,0.1,0.3
		c0.2,2.7,0.2,5.7,1.7,8.1c1.4,2.4,3.6,4.7,5.8,6.4c2.3,1.8,5.1,3,8,3.1c2.8,0.1,5.6-0.9,8-2.3c5.6-3.3,9.5-8.9,8.9-15.5
		c0.4-0.1,0.8-0.3,1.2-0.5c0.8-0.3,1.5-0.7,2.2-1.1c1.2-0.8,2.3-1.7,3.2-2.9C67.3,51.8,66.5,46.4,66.1,41.9z M25.3,57.7
		c-1.5-0.6-2.8-1.6-3.8-2.9c-1.4-1.9-2.3-4.4-2.3-6.8c0-1-0.1-2.1,0.3-3.1c0-0.1,0.1-0.2,0.1-0.2c0.2-0.2,0.5,0.1,0.7,0.3
		c2.1,2.5,4.8,4.5,7.1,6.9c0.1,0.1,0.2,0.2,0.2,0.3s-0.1,0.3-0.1,0.4c-1,1.6-1.6,3.4-1.7,5.2C25.6,57.8,25.5,57.8,25.3,57.7z
		 M54.1,65.9c-1.1,2.9-3.2,5.3-5.8,7c-0.2,0.2-0.5,0.3-0.8,0.5c-2.4,1.4-5.3,2.4-8,1.9c-2-0.4-3.8-1.6-5.4-3c-2.3-1.8-4.4-4-5.3-6.8
		c-0.7-2.1-0.6-4.3-0.4-6.4c0.2-1.9,0.5-3.9,1.6-5.6c0.5-0.7,1.1-1.5,0.7-2.4c-0.4-0.8-1.6-1.6-2.3-2.2c-1.6-1.5-3.2-3.1-4.9-4.5
		c1.5,1.3,3.2,2.3,4.9,3.3c1.2,0.7,2.4,2,3.9,1.8c3-0.3,5.6-1.7,8.6-1.8c2-0.1,4.1,0.1,6.1,0.6c1.8,0.5,3.7,2,5.6,0.9
		c2.5-1.4,4.7-3.4,7.3-4.8c-0.3,0.6-1.2,1.1-1.7,1.6c-0.6,0.6-1.3,1.2-1.9,1.8c-0.8,0.8-1.6,1.5-2.4,2.3c-0.7,0.7-1.7,1.2-1.2,2.3
		c1.7,3.4,2.8,7.4,2.2,11.2C54.6,64.5,54.4,65.2,54.1,65.9z M62.8,53c-0.4,0.8-0.8,1.5-1.4,2.2c-1,1.3-2.4,2.2-4,2.7
		c-0.4-1.8-1-3.5-1.7-5.1c-0.1-0.3-0.2-0.7,0-1c0.3-0.3,0.7-0.6,1-0.9c0.7-0.7,1.4-1.4,2.2-2.1c1.4-1.4,2.8-2.8,4.2-4.1
		c0.1-0.1,0.3-0.2,0.4-0.1c0.1,0,0.1,0.1,0.1,0.2c0.5,2,0.5,4.1-0.1,6.1C63.4,51.5,63.2,52.3,62.8,53z"/>
	<circle class="st2" cx="33.4" cy="61.3" r="2.9"/>
	<circle class="st3" cx="49.5" cy="61.3" r="2.9"/>
	<path class="st2" d="M46.4,68.7c-0.1,0.8-0.6,1.9-1.5,2.1c-1.2,0.2-1.8-1.2-1.8-2.1c0-0.1,0-0.2,0-0.2c0.7-0.8,1.6-1.9,0.8-2.2
		c-0.5-0.2-1.1-0.3-1.6-0.3l0,0c0,0-0.1,0-0.2,0c-0.2,0-0.3,0-0.5,0c-1.1,0-3,0.2-2.6,1c0.3,0.7,0.8,1.3,1.2,1.7
		c0,0.9-0.4,2.1-1.4,2.2c-1.2,0.2-1.8-1.1-1.8-2.1c0-1.6-2.5-1.6-2.4,0c0,2.5,2,4.9,4.7,4.5c1.1-0.2,1.9-0.7,2.5-1.5
		c0.8,1,1.9,1.7,3.3,1.6c2.3-0.2,3.7-2.4,3.8-4.5C48.9,67.1,46.5,67.1,46.4,68.7z"/>
</g>
<g id="Слой_4">
	<g>
		
			<linearGradient id="SVGID_1_" gradientUnits="userSpaceOnUse" x1="429.2547" y1="261.1902" x2="396.4742" y2="308.3121" gradientTransform="matrix(1 0 0 1 0 -758.4)">
			<stop  offset="0" style="stop-color:#A62083"/>
			<stop  offset="0.4052" style="stop-color:#B44283"/>
			<stop  offset="0.7723" style="stop-color:#BE5983"/>
			<stop  offset="1" style="stop-color:#C26283"/>
		</linearGradient>
		<path class="st4" d="M52.9,85.8c-23.2,0-42-18.8-42-42s18.8-42,42-42s42,18.8,42,42S76.1,85.8,52.9,85.8z M52.9,4.1
			C31,4.1,13.1,21.9,13.1,43.9S31,83.6,52.9,83.6s39.8-17.8,39.8-39.8S74.8,4.1,52.9,4.1z"/>
		<g>
			<linearGradient id="SVGID_2_" gradientUnits="userSpaceOnUse" x1="58.0207" y1="2.9405" x2="25.2402" y2="50.0624">
				<stop  offset="0" style="stop-color:#A62083"/>
				<stop  offset="0.4052" style="stop-color:#B44283"/>
				<stop  offset="0.7723" style="stop-color:#BE5983"/>
				<stop  offset="1" style="stop-color:#C26283"/>
			</linearGradient>
			<path class="st5" d="M31.2,31.8c-0.2-0.2-0.5-0.5-0.7-0.3c0,0-0.1,0.1-0.1,0.2c-0.4,1-0.3,2.1-0.3,3.1c0,2.4,0.9,4.9,2.3,6.8
				c1,1.3,2.3,2.3,3.8,2.9c0.2,0.1,0.3,0.1,0.5,0.1c0.1-1.8,0.7-3.6,1.7-5.2c0-0.1,0.1-0.3,0.1-0.4s-0.1-0.2-0.2-0.3
				C36,36.3,33.3,34.3,31.2,31.8z"/>
			<linearGradient id="SVGID_3_" gradientUnits="userSpaceOnUse" x1="70.9106" y1="11.9073" x2="38.1301" y2="59.0293">
				<stop  offset="0" style="stop-color:#A62083"/>
				<stop  offset="0.4052" style="stop-color:#B44283"/>
				<stop  offset="0.7723" style="stop-color:#BE5983"/>
				<stop  offset="1" style="stop-color:#C26283"/>
			</linearGradient>
			<path class="st6" d="M64.8,37c0.8-0.8,1.6-1.5,2.4-2.3c0.6-0.6,1.3-1.2,1.9-1.8c0.5-0.5,1.4-1,1.7-1.6c-2.6,1.4-4.8,3.4-7.3,4.8
				c-1.9,1.1-3.8-0.4-5.6-0.9c-2-0.5-4.1-0.7-6.1-0.6c-3,0.1-5.6,1.5-8.6,1.8c-1.5,0.2-2.7-1.1-3.9-1.8c-1.7-1-3.4-2-4.9-3.3
				c1.7,1.4,3.3,3,4.9,4.5c0.7,0.6,1.9,1.4,2.3,2.2c0.4,0.9-0.2,1.7-0.7,2.4c-1.1,1.7-1.4,3.7-1.6,5.6c-0.2,2.1-0.3,4.3,0.4,6.4
				c0.9,2.8,3,5,5.3,6.8c1.6,1.4,3.4,2.6,5.4,3c2.7,0.5,5.6-0.5,8-1.9c0.3-0.2,0.6-0.3,0.8-0.5c2.6-1.7,4.7-4.1,5.8-7
				c0.3-0.7,0.5-1.5,0.8-2.3c0.6-3.8-0.5-7.8-2.2-11.2C63.1,38.2,64.1,37.7,64.8,37z M44.3,51c-1.6,0-2.9-1.3-2.9-2.9
				s1.3-2.9,2.9-2.9s2.9,1.3,2.9,2.9S45.9,51,44.3,51z M56,60.2c-1.4,0.1-2.5-0.6-3.3-1.6c-0.6,0.8-1.4,1.3-2.5,1.5
				c-2.7,0.4-4.7-2-4.7-4.5c-0.1-1.6,2.4-1.6,2.4,0c0,1,0.6,2.3,1.8,2.1c1-0.1,1.4-1.3,1.4-2.2c-0.4-0.4-0.9-1-1.2-1.7
				c-0.4-0.8,1.5-1,2.6-1c0.2,0,0.3,0,0.5,0c0.1,0,0.2,0,0.2,0c0.5,0,1.1,0.1,1.6,0.3c0.8,0.3-0.1,1.4-0.8,2.2c0,0,0,0.1,0,0.2
				c0,0.9,0.6,2.3,1.8,2.1c0.9-0.2,1.4-1.3,1.5-2.1c0.1-1.5,2.5-1.5,2.5,0.2C59.7,57.8,58.3,60,56,60.2z M60.4,51
				c-1.6,0-2.9-1.3-2.9-2.9s1.3-2.9,2.9-2.9s2.9,1.3,2.9,2.9S62,51,60.4,51z"/>
			<linearGradient id="SVGID_4_" gradientUnits="userSpaceOnUse" x1="83.2538" y1="20.4939" x2="50.4733" y2="67.6159">
				<stop  offset="0" style="stop-color:#A62083"/>
				<stop  offset="0.4052" style="stop-color:#B44283"/>
				<stop  offset="0.7723" style="stop-color:#BE5983"/>
				<stop  offset="1" style="stop-color:#C26283"/>
			</linearGradient>
			<path class="st7" d="M74.4,31.4c-0.1-0.1-0.3,0-0.4,0.1c-1.4,1.3-2.8,2.7-4.2,4.1c-0.8,0.7-1.5,1.4-2.2,2.1
				c-0.3,0.3-0.7,0.6-1,0.9c-0.2,0.3-0.1,0.7,0,1c0.7,1.6,1.3,3.3,1.7,5.1c1.6-0.5,3-1.4,4-2.7c0.6-0.7,1-1.4,1.4-2.2
				c0.3-0.7,0.6-1.4,0.7-2.1c0.6-2,0.6-4.1,0.1-6.1C74.5,31.5,74.5,31.4,74.4,31.4z"/>
			<linearGradient id="SVGID_5_" gradientUnits="userSpaceOnUse" x1="73.7245" y1="13.8648" x2="40.944" y2="60.9868">
				<stop  offset="0" style="stop-color:#A62083"/>
				<stop  offset="0.4052" style="stop-color:#B44283"/>
				<stop  offset="0.7723" style="stop-color:#BE5983"/>
				<stop  offset="1" style="stop-color:#C26283"/>
			</linearGradient>
			<path class="st8" d="M52.9,5.8c-21,0-38,17-38,38s17,38,38,38s38-17,38-38S73.9,5.8,52.9,5.8z M75.3,42.8c-0.9,1.2-2,2.1-3.2,2.9
				c-0.7,0.4-1.4,0.8-2.2,1.1c-0.4,0.2-0.8,0.4-1.2,0.5c0.6,6.6-3.3,12.2-8.9,15.5c-2.4,1.4-5.2,2.4-8,2.3c-2.9-0.1-5.7-1.3-8-3.1
				c-2.2-1.7-4.4-4-5.8-6.4c-1.5-2.4-1.5-5.4-1.7-8.1c0-0.1,0-0.2-0.1-0.3C36.1,47.1,36,47,35.9,47c-3.7-1.1-6.7-3.9-7.8-7.6
				c-1-3.7-0.4-7.7-0.1-11.4c0-1.1,0.4-2.4,1.7-2.3c1,0.1,1.8,1,2.6,1.5c1.6,1,3.2,2.1,4.9,3.1c1.2,0.7,2.4,1.4,3.6,2.1
				c0.7,0.5,1.6,1.4,2.6,1.2c1.2-0.3,2.4-0.8,3.6-1.1c2.4-0.5,4.9-0.7,7.4-0.5c1.9,0.2,3.7,0.5,5.5,1.1c0.8,0.2,1.6,0.8,2.4,0.5
				c0.7-0.2,1.3-0.8,1.9-1.2c1.9-1.1,3.8-2.3,5.7-3.5c1.3-0.8,2.6-1.6,3.8-2.4c0.9-0.7,2-1.4,2.9-0.2c0.3,0.4,0.2,0.9,0.3,1.4
				c0,0.3,0.1,0.7,0.1,1C77.4,33.3,78.2,38.6,75.3,42.8z"/>
		</g>
	</g>
</g>
<g id="Слой_5">
	<g>
		
			<linearGradient id="SVGID_6_" gradientUnits="userSpaceOnUse" x1="135" y1="817.0258" x2="135" y2="803.8551" gradientTransform="matrix(1 0 0 1 0 -758.4)">
			<stop  offset="0" style="stop-color:#A62083"/>
			<stop  offset="1" style="stop-color:#C26283"/>
		</linearGradient>
		<path class="st9" d="M153.8,26.1c0,2.6-1.7,4-4,4c-2.2,0-3.2-1-3.6-3c-0.3-1.4-2.9-2.5-6.4-2.5c-9.4,0-16.3,14.9-16.3,24.5
			c0,9.7,4.9,14.1,9.7,14.1c4.6,0,9.7-3,12-6c0.2-2,0.8-4.3,4-4.3c2.7,0,3.9,2,3.9,3.2s-0.3,2.6-2.1,4.7c-3.3,3.6-10.8,8.9-18.8,8.8
			c-9.3,0-16-6.8-16-21c0-11.4,9-30.3,23.2-30.3C148,18.3,153.8,22.4,153.8,26.1z"/>
		
			<linearGradient id="SVGID_7_" gradientUnits="userSpaceOnUse" x1="173.9" y1="817.0258" x2="173.9" y2="803.8551" gradientTransform="matrix(1 0 0 1 0 -758.4)">
			<stop  offset="0" style="stop-color:#A62083"/>
			<stop  offset="1" style="stop-color:#C26283"/>
		</linearGradient>
		<path class="st10" d="M180.3,45.8c0-2.6-0.4-3.3-1.7-3.3c-2.1,0-6.8,1.4-10.9,6.8v14c0.4,0.5,0.6,1.2,0.6,2.1
			c0,1.9-2.7,3.1-5.1,3.1c-2.3,0-3.1-0.8-3.1-2.4c0-1.2,0.2-2.1,0.5-2.5V24.2c-0.1-0.7-0.7-1.5-0.7-2.2c0-2.5,2.1-3.9,4.8-3.9
			c1.2,0,3.6,1.5,3.6,3.4c0,0.8-0.4,1.6-0.7,2.3v17.9h0.2c4.8-4.4,10.1-6.8,14.2-6.8c4,0,5.3,2.4,5.3,7.5v21
			c0.1,0.5,0.6,1.1,0.6,1.7c0,1.8-2.4,3.3-4.6,3.3c-2.3,0-4-1-4-2.6c0-0.8,0.2-1.9,0.8-2.5V45.8H180.3z"/>
		
			<linearGradient id="SVGID_8_" gradientUnits="userSpaceOnUse" x1="200.35" y1="817.0258" x2="200.35" y2="803.8551" gradientTransform="matrix(1 0 0 1 0 -758.4)">
			<stop  offset="0" style="stop-color:#A62083"/>
			<stop  offset="1" style="stop-color:#C26283"/>
		</linearGradient>
		<path class="st11" d="M196.7,41.3c-0.5-0.5-0.7-1.3-0.7-2c0-2.1,0.2-4.4,4.8-4.4c1.7,0,3.8,2,3.8,3.5c0,1.4-0.7,2.1-0.8,2.6v21.7
			c0.4,0.3,1,1.2,1,2.1c0,2.6-3.2,3.7-5.5,3.7c-2,0-3.4-1.4-3.4-3.6c0-1.4,0.6-2.2,0.9-2.6v-21C196.8,41.3,196.7,41.3,196.7,41.3z
			 M204.7,23.9c0,4.5-2.1,7.1-4.6,7.1s-3.4-1.5-3.4-3.7c0-3.8,1.7-6.8,4.6-6.8C203.5,20.4,204.7,21.7,204.7,23.9z"/>
		
			<linearGradient id="SVGID_9_" gradientUnits="userSpaceOnUse" x1="226.5" y1="817.0258" x2="226.5" y2="803.8551" gradientTransform="matrix(1 0 0 1 0 -758.4)">
			<stop  offset="0" style="stop-color:#A62083"/>
			<stop  offset="1" style="stop-color:#C26283"/>
		</linearGradient>
		<path class="st12" d="M232.9,45.8c0-2.6-0.4-3.3-1.7-3.3c-2.1,0-6.8,1.4-10.9,6.8v14c0.4,0.5,0.6,1.2,0.6,2.1
			c0,1.9-2.7,3.1-5.1,3.1c-2.3,0-3.1-0.8-3.1-2.4c0-1.2,0.2-2.1,0.5-2.5V24.2c-0.1-0.7-0.7-1.5-0.7-2.2c0-2.5,2.1-3.9,4.8-3.9
			c1.2,0,3.6,1.5,3.6,3.4c0,0.8-0.4,1.6-0.7,2.3v17.9h0.2c4.8-4.4,10.1-6.8,14.2-6.8c4,0,5.3,2.4,5.3,7.5v21
			c0.1,0.5,0.6,1.1,0.6,1.7c0,1.8-2.4,3.3-4.6,3.3c-2.3,0-4-1-4-2.6c0-0.8,0.2-1.9,0.8-2.5V45.8H232.9z"/>
		
			<linearGradient id="SVGID_10_" gradientUnits="userSpaceOnUse" x1="262.65" y1="817.0258" x2="262.65" y2="803.8551" gradientTransform="matrix(1 0 0 1 0 -758.4)">
			<stop  offset="0" style="stop-color:#A62083"/>
			<stop  offset="1" style="stop-color:#C26283"/>
		</linearGradient>
		<path class="st13" d="M256.2,60.2c0.1,1,1.3,2.4,2.4,2.4c2.6,0,7.3-3.2,10.3-6.8V39.3c-0.2-0.5-0.5-1-0.5-1.7
			c0-1.9,0.9-2.7,3.5-2.7c2.4,0,4.6,0.4,4,4.3v24.5c0.4,0.5,0.7,1.2,0.7,2c0,1.7-1.7,2.8-4.9,2.8c-2.4,0-3.4-0.8-3.4-2.4
			c0-0.6,0.5-1.2,0.7-1.7v-1.7c-3.3,3.6-7.8,6.8-13.1,6.8c-3.2,0-6.7-3.2-6.7-6.7v-23c-0.1-0.5-0.5-1.1-0.5-1.8
			c0-2.5,2.1-3.2,4.5-3.2c1.5,0,3.6,0.8,3.6,3c0,0.8-0.2,1.4-0.6,1.8L256.2,60.2L256.2,60.2z"/>
		
			<linearGradient id="SVGID_11_" gradientUnits="userSpaceOnUse" x1="297.25" y1="817.0258" x2="297.25" y2="803.8551" gradientTransform="matrix(1 0 0 1 0 -758.4)">
			<stop  offset="0" style="stop-color:#A62083"/>
			<stop  offset="1" style="stop-color:#C26283"/>
		</linearGradient>
		<path class="st14" d="M305.7,42.4c0-2-0.7-3-2.7-3c-4.2,0-7.7,1.4-10.5,3.2c0.2,0.6-1,2.1-3.2,2.1c-1.8,0-3.2-2.1-3.2-3.6
			c0-1.4,1.9-3.4,3.5-3.1c3.9-2.5,9.1-4.2,16-4.2c3.9,0,6.9,2.5,6.9,6.8v23.3c0.3,0.2,0.6,1.1,0.6,1.7c0,2.3-2.7,2.8-5,2.8
			c-2.5,0-3.3-1.1-3.3-2.4c0-0.7,0.3-1.3,0.6-1.8v-3.4h-0.1c-5.4,5.9-10.6,8.6-16.9,8.6c-3.9,0-7-2.2-7-6.2
			c0-6.7,8.3-15.3,24.2-17.2v-3.6C305.6,42.4,305.7,42.4,305.7,42.4z M305.6,51.1c-10,1.1-17,7.2-17,10.6c0,1.4,1.1,1.7,2.6,1.7
			c5.5,0,14.4-6.6,14.4-10V51.1z"/>
		
			<linearGradient id="SVGID_12_" gradientUnits="userSpaceOnUse" x1="341.8" y1="817.0258" x2="341.8" y2="803.8551" gradientTransform="matrix(1 0 0 1 0 -758.4)">
			<stop  offset="0" style="stop-color:#A62083"/>
			<stop  offset="1" style="stop-color:#C26283"/>
		</linearGradient>
		<path class="st15" d="M357.7,26.5c0,1.7-0.9,3.2-3.4,3.2c-3,0-4.3-1.2-4.3-2.7c-0.8-1.2-3.1-2.1-6.2-2.1
			c-8.2,0-15.5,6.4-15.5,11.9c0,2.7,1.4,3.7,3.3,3.7c2.1,0,5-0.7,9-1.8c3.9-1.1,7.2-1.8,11.1-1.8c6.5,0,11.4,3.3,11.4,10.1
			c0,4.6-1.4,8.3-4.3,11.6c-5.6,6.9-16,10.8-24.8,10.8c-9.8,0-13.4-7.1-13.4-9.6s1.7-4.5,4.3-4.5c2.5,0,3,3.1,4,4.9
			c1.1,2.1,2.8,3.1,5.7,3.1c6,0,13.7-3.2,17.8-7.8c2.4-2.3,3.1-4.9,3.1-8.1c0-3.3-1.7-4.3-4.8-4.3c-3.3,0-6.2,0.6-10.2,1.8
			c-4,1.1-7.3,1.7-10.6,1.7c-5.4,0-9.4-2.4-9.4-9.2c0-8.4,10.9-18.6,24.1-18.6C351.6,18.9,357.7,23.3,357.7,26.5z"/>
		
			<linearGradient id="SVGID_13_" gradientUnits="userSpaceOnUse" x1="383.6" y1="817.0258" x2="383.6" y2="803.8551" gradientTransform="matrix(1 0 0 1 0 -758.4)">
			<stop  offset="0" style="stop-color:#A62083"/>
			<stop  offset="1" style="stop-color:#C26283"/>
		</linearGradient>
		<path class="st16" d="M390,45.8c0-2.6-0.4-3.3-1.7-3.3c-2.1,0-6.8,1.4-10.9,6.8v14c0.4,0.5,0.6,1.2,0.6,2.1c0,1.9-2.7,3.1-5.1,3.1
			c-2.3,0-3.1-0.8-3.1-2.4c0-1.2,0.2-2.1,0.5-2.5V24.2c-0.1-0.7-0.7-1.5-0.7-2.2c0-2.5,2.1-3.9,4.8-3.9c1.2,0,3.6,1.5,3.6,3.4
			c0,0.8-0.4,1.6-0.7,2.3v17.9h0.2c4.8-4.4,10.1-6.8,14.2-6.8c4,0,5.3,2.4,5.3,7.5v21c0.1,0.5,0.6,1.1,0.6,1.7
			c0,1.8-2.4,3.3-4.6,3.3c-2.3,0-4-1-4-2.6c0-0.8,0.2-1.9,0.8-2.5V45.8H390z"/>
		
			<linearGradient id="SVGID_14_" gradientUnits="userSpaceOnUse" x1="419.35" y1="817.0258" x2="419.35" y2="803.8551" gradientTransform="matrix(1 0 0 1 0 -758.4)">
			<stop  offset="0" style="stop-color:#A62083"/>
			<stop  offset="1" style="stop-color:#C26283"/>
		</linearGradient>
		<path class="st17" d="M413.3,47l0.2,0.2c2.2-2.7,3.7-4.3,5-5.8l7-6.7c0.1-1.3,1.2-2.4,2.8-2.4c2.7,0,4,1.8,4,3.7
			c0,1.7-1.4,2.9-2.5,2.8L418.9,50l11.8,12.5c1.4-0.1,2.7,1,2.7,2.5c0,2.2-1.8,3.9-4.8,3.9c-1.3,0-2.2-0.8-2.6-2.2l-7.9-8.4
			c-1.1-1.4-2.6-2.8-4.6-5.5l-0.2,0.1v9.4c0.3,0.8,0.8,1.7,0.8,2.5c0,2.7-1.4,3.8-4.5,3.8c-1.8,0-4.2-0.7-4.2-4
			c0-0.5,0.1-1.6,0.8-2.2V23.9c-0.4-0.3-0.9-1.4-0.9-2.1c0-1.7,0.7-3.6,4.5-3.6c2.9,0,4.2,1,4.2,3.4c0,0.5-0.2,1.4-0.7,2L413.3,47
			L413.3,47z"/>
		
			<linearGradient id="SVGID_15_" gradientUnits="userSpaceOnUse" x1="443.35" y1="817.0258" x2="443.35" y2="803.8551" gradientTransform="matrix(1 0 0 1 0 -758.4)">
			<stop  offset="0" style="stop-color:#A62083"/>
			<stop  offset="1" style="stop-color:#C26283"/>
		</linearGradient>
		<path class="st18" d="M439.7,41.3c-0.5-0.5-0.7-1.3-0.7-2c0-2.1,0.2-4.4,4.8-4.4c1.7,0,3.8,2,3.8,3.5c0,1.4-0.7,2.1-0.8,2.6v21.7
			c0.4,0.3,1,1.2,1,2.1c0,2.6-3.2,3.7-5.5,3.7c-2,0-3.4-1.4-3.4-3.6c0-1.4,0.6-2.2,0.9-2.6L439.7,41.3L439.7,41.3z M447.7,23.9
			c0,4.5-2.1,7.1-4.6,7.1c-2.4,0-3.4-1.5-3.4-3.7c0-3.8,1.7-6.8,4.6-6.8C446.5,20.4,447.7,21.7,447.7,23.9z"/>
	</g>
	<rect x="103.4" y="14.7" class="st19" width="344.4" height="58.2"/>
	<g class="st0">
		<text transform="matrix(1 0 0 1 405.2405 62.784)" class="st20 st21 st22">C</text>
		<text transform="matrix(1 0 0 1 132.5203 62.784)" class="st20 st21 st22">h</text>
		<text transform="matrix(1 0 0 1 168.6961 62.784)" class="st20 st21 st22">i</text>
		<text transform="matrix(1 0 0 1 185.0359 62.784)" class="st20 st21 st22">h</text>
		<text transform="matrix(1 0 0 1 221.2117 62.784)" class="st20 st21 st22">u</text>
		<text transform="matrix(1 0 0 1 257.159 62.784)" class="st20 st21 st22">a</text>
		<text transform="matrix(1 0 0 1 294.2459 62.784)" class="st20 st21 st22">S</text>
		<text transform="matrix(1 0 0 1 342.1258 62.784)" class="st20 st21 st22">h</text>
		<text transform="matrix(1 0 0 1 378.3015 62.784)" class="st20 st21 st22">k</text>
		<text transform="matrix(1 0 0 1 411.741 62.784)" class="st20 st21 st22">i</text>
	</g>
</g>
</svg>
