<?xml version="1.0" encoding="utf-8"?>
<!-- Generator: Adobe Illustrator 23.0.3, SVG Export Plug-In . SVG Version: 6.00 Build 0)  -->
<svg version="1.1" id="Слой_1" xmlns="http://www.w3.org/2000/svg" xmlns:xlink="http://www.w3.org/1999/xlink" x="0px" y="0px"
	 viewBox="0 0 87.1 87.1" style="enable-background:new 0 0 87.1 87.1;" xml:space="preserve">
<style type="text/css">
	.st0{fill:url(#SVGID_1_);}
	.st1{fill:url(#SVGID_2_);}
	.st2{fill:url(#SVGID_3_);}
	.st3{fill:url(#SVGID_4_);}
	.st4{fill:url(#SVGID_5_);}
</style>
<g>
	
		<linearGradient id="SVGID_1_" gradientUnits="userSpaceOnUse" x1="419.9181" y1="260.9536" x2="387.1376" y2="308.0756" gradientTransform="matrix(1 0 0 1 0 -758.4)">
		<stop  offset="0" style="stop-color:#A62083"/>
		<stop  offset="0.4052" style="stop-color:#B44283"/>
		<stop  offset="0.7723" style="stop-color:#BE5983"/>
		<stop  offset="1" style="stop-color:#C26283"/>
	</linearGradient>
	<path class="st0" d="M43.6,85.6c-23.2,0-42-18.8-42-42s18.8-42,42-42s42,18.8,42,42S66.8,85.6,43.6,85.6z M43.6,3.9
		C21.7,3.9,3.8,21.7,3.8,43.7s17.9,39.7,39.8,39.7s39.8-17.8,39.8-39.8S65.5,3.9,43.6,3.9z"/>
	<g>
		<linearGradient id="SVGID_2_" gradientUnits="userSpaceOnUse" x1="48.6841" y1="2.7039" x2="15.9036" y2="49.8258">
			<stop  offset="0" style="stop-color:#A62083"/>
			<stop  offset="0.4052" style="stop-color:#B44283"/>
			<stop  offset="0.7723" style="stop-color:#BE5983"/>
			<stop  offset="1" style="stop-color:#C26283"/>
		</linearGradient>
		<path class="st1" d="M21.9,31.6c-0.2-0.2-0.5-0.5-0.7-0.3c0,0-0.1,0.1-0.1,0.2c-0.4,1-0.3,2.1-0.3,3.1c0,2.4,0.9,4.9,2.3,6.8
			c1,1.3,2.3,2.3,3.8,2.9c0.2,0.1,0.3,0.1,0.5,0.1c0.1-1.8,0.7-3.6,1.7-5.2c0-0.1,0.1-0.3,0.1-0.4s-0.1-0.2-0.2-0.3
			C26.7,36.1,24,34.1,21.9,31.6z"/>
		<linearGradient id="SVGID_3_" gradientUnits="userSpaceOnUse" x1="61.574" y1="11.6708" x2="28.7935" y2="58.7927">
			<stop  offset="0" style="stop-color:#A62083"/>
			<stop  offset="0.4052" style="stop-color:#B44283"/>
			<stop  offset="0.7723" style="stop-color:#BE5983"/>
			<stop  offset="1" style="stop-color:#C26283"/>
		</linearGradient>
		<path class="st2" d="M55.5,36.8c0.8-0.8,1.6-1.5,2.4-2.3c0.6-0.6,1.3-1.2,1.9-1.8c0.5-0.5,1.4-1,1.7-1.6c-2.6,1.4-4.8,3.4-7.3,4.8
			c-1.9,1.1-3.8-0.4-5.6-0.9c-2-0.5-4.1-0.7-6.1-0.6c-3,0.1-5.6,1.5-8.6,1.8c-1.5,0.2-2.7-1.1-3.9-1.8c-1.7-1-3.4-2-4.9-3.3
			c1.7,1.4,3.3,3,4.9,4.5c0.7,0.6,1.9,1.4,2.3,2.2c0.4,0.9-0.2,1.7-0.7,2.4c-1.1,1.7-1.4,3.7-1.6,5.6c-0.2,2.1-0.3,4.3,0.4,6.4
			c0.9,2.8,3,5,5.3,6.8c1.6,1.4,3.4,2.6,5.4,3c2.7,0.5,5.6-0.5,8-1.9c0.3-0.2,0.6-0.3,0.8-0.5c2.6-1.7,4.7-4.1,5.8-7
			c0.3-0.7,0.5-1.5,0.8-2.3c0.6-3.8-0.5-7.8-2.2-11.2C53.8,38,54.8,37.5,55.5,36.8z M35,50.8c-1.6,0-2.9-1.3-2.9-2.9S33.4,45,35,45
			s2.9,1.3,2.9,2.9S36.6,50.8,35,50.8z M46.7,60c-1.4,0.1-2.5-0.6-3.3-1.6c-0.6,0.8-1.4,1.3-2.5,1.5c-2.7,0.4-4.7-2-4.7-4.5
			c-0.1-1.6,2.4-1.6,2.4,0c0,1,0.6,2.3,1.8,2.1c1-0.1,1.4-1.3,1.4-2.2c-0.4-0.4-0.9-1-1.2-1.7c-0.4-0.8,1.5-1,2.6-1
			c0.2,0,0.3,0,0.5,0c0.1,0,0.2,0,0.2,0c0.5,0,1.1,0.1,1.6,0.3c0.8,0.3-0.1,1.4-0.8,2.2c0,0,0,0.1,0,0.2c0,0.9,0.6,2.3,1.8,2.1
			c0.9-0.2,1.4-1.3,1.5-2.1c0.1-1.5,2.5-1.5,2.5,0.2C50.4,57.6,49,59.8,46.7,60z M51.1,50.8c-1.6,0-2.9-1.3-2.9-2.9s1.3-2.9,2.9-2.9
			s2.9,1.3,2.9,2.9S52.7,50.8,51.1,50.8z"/>
		<linearGradient id="SVGID_4_" gradientUnits="userSpaceOnUse" x1="73.9172" y1="20.2573" x2="41.1367" y2="67.3793">
			<stop  offset="0" style="stop-color:#A62083"/>
			<stop  offset="0.4052" style="stop-color:#B44283"/>
			<stop  offset="0.7723" style="stop-color:#BE5983"/>
			<stop  offset="1" style="stop-color:#C26283"/>
		</linearGradient>
		<path class="st3" d="M65.1,31.2c-0.1-0.1-0.3,0-0.4,0.1c-1.4,1.3-2.8,2.7-4.2,4.1c-0.8,0.7-1.5,1.4-2.2,2.1
			c-0.3,0.3-0.7,0.6-1,0.9c-0.2,0.3-0.1,0.7,0,1c0.7,1.6,1.3,3.3,1.7,5.1c1.6-0.5,3-1.4,4-2.7c0.6-0.7,1-1.4,1.4-2.2
			c0.3-0.7,0.6-1.4,0.7-2.1c0.6-2,0.6-4.1,0.1-6.1C65.2,31.3,65.2,31.2,65.1,31.2z"/>
		<linearGradient id="SVGID_5_" gradientUnits="userSpaceOnUse" x1="64.3879" y1="13.6282" x2="31.6074" y2="60.7502">
			<stop  offset="0" style="stop-color:#A62083"/>
			<stop  offset="0.4052" style="stop-color:#B44283"/>
			<stop  offset="0.7723" style="stop-color:#BE5983"/>
			<stop  offset="1" style="stop-color:#C26283"/>
		</linearGradient>
		<path class="st4" d="M43.6,5.6c-21,0-38,17-38,38s17,38,38,38s38-17,38-38S64.6,5.6,43.6,5.6z M66,42.6c-0.9,1.2-2,2.1-3.2,2.9
			c-0.7,0.4-1.4,0.8-2.2,1.1c-0.4,0.2-0.8,0.4-1.2,0.5c0.6,6.6-3.3,12.2-8.9,15.5c-2.4,1.4-5.2,2.4-8,2.3c-2.9-0.1-5.7-1.3-8-3.1
			c-2.2-1.7-4.4-4-5.8-6.4C27.2,53,27.2,50,27,47.3c0-0.1,0-0.2-0.1-0.3c-0.1-0.1-0.2-0.2-0.3-0.2c-3.7-1.1-6.7-3.9-7.8-7.6
			c-1-3.7-0.4-7.7-0.1-11.4c0-1.1,0.4-2.4,1.7-2.3c1,0.1,1.8,1,2.6,1.5c1.6,1,3.2,2.1,4.9,3.1c1.2,0.7,2.4,1.4,3.6,2.1
			c0.7,0.5,1.6,1.4,2.6,1.2c1.2-0.3,2.4-0.8,3.6-1.1c2.4-0.5,4.9-0.7,7.4-0.5c1.9,0.2,3.7,0.5,5.5,1.1c0.8,0.2,1.6,0.8,2.4,0.5
			c0.7-0.2,1.3-0.8,1.9-1.2c1.9-1.1,3.8-2.3,5.7-3.5c1.3-0.8,2.6-1.6,3.8-2.4c0.9-0.7,2-1.4,2.9-0.2c0.3,0.4,0.2,0.9,0.3,1.4
			c0,0.3,0.1,0.7,0.1,1C68.1,33.1,68.9,38.4,66,42.6z"/>
	</g>
</g>
</svg>
