<svg width="99" height="101" viewBox="0 0 99 101" fill="none" xmlns="http://www.w3.org/2000/svg">
<path fill-rule="evenodd" clip-rule="evenodd" d="M94.1727 96.0615C92.0484 98.2356 88.6042 98.2356 86.4798 96.0615L4.15366 11.8093C2.02932 9.6353 2.02932 6.11049 4.15366 3.93645C6.278 1.76241 9.72224 1.76241 11.8466 3.93645L94.1728 88.1886C96.2971 90.3627 96.2971 93.8875 94.1727 96.0615Z" fill="#FED1D1" stroke="#6A4162"/>
<path fill-rule="evenodd" clip-rule="evenodd" d="M4.13458 96.1886C2.01024 94.0146 2.01023 90.4898 4.13457 88.3157L86.4607 4.06355C88.5851 1.88951 92.0293 1.88951 94.1537 4.06355C96.278 6.23759 96.278 9.76241 94.1537 11.9364L11.8275 96.1886C9.70316 98.3627 6.25892 98.3627 4.13458 96.1886Z" fill="#FED1D1" stroke="#6A4162"/>
</svg>
