<svg width="50" height="50" viewBox="0 0 50 50" fill="none" xmlns="http://www.w3.org/2000/svg">
<path d="M31.1362 7.8125C33.785 8.52488 36.2002 9.92074 38.1397 11.8603C40.0793 13.7998 41.4751 16.215 42.1875 18.8638" stroke="#FED1D1" stroke-width="2" stroke-linecap="round" stroke-linejoin="round"/>
<path d="M29.5182 13.8511C31.1075 14.2785 32.5566 15.116 33.7203 16.2798C34.884 17.4435 35.7215 18.8926 36.149 20.4819" stroke="#FED1D1" stroke-width="2" stroke-linecap="round" stroke-linejoin="round"/>
<path d="M18.0618 24.3781C19.6825 27.6916 22.3685 30.3654 25.6894 31.971C25.9324 32.0862 26.2011 32.1361 26.4692 32.1158C26.7373 32.0955 26.9955 32.0057 27.2184 31.8553L32.1082 28.5947C32.3245 28.4505 32.5733 28.3626 32.8321 28.3388C33.091 28.315 33.3516 28.3562 33.5906 28.4586L42.7384 32.3791C43.0492 32.5111 43.3086 32.7405 43.4776 33.0328C43.6467 33.325 43.7161 33.6643 43.6756 33.9995C43.3864 36.262 42.2825 38.3416 40.5706 39.8488C38.8586 41.356 36.6559 42.1875 34.375 42.1876C27.3302 42.1876 20.5739 39.3891 15.5925 34.4076C10.611 29.4262 7.8125 22.6699 7.8125 15.6251C7.81262 13.3442 8.64413 11.1415 10.1513 9.42955C11.6585 7.71756 13.7381 6.61365 16.0006 6.32451C16.3358 6.28395 16.6751 6.35342 16.9673 6.52245C17.2596 6.69148 17.489 6.95091 17.621 7.26167L21.545 16.4175C21.6465 16.6543 21.6878 16.9126 21.6653 17.1692C21.6429 17.4259 21.5573 17.6731 21.4162 17.8886L18.1669 22.8534C18.019 23.0768 17.9316 23.3347 17.9132 23.6019C17.8947 23.8691 17.9459 24.1366 18.0618 24.3781V24.3781Z" stroke="#FED1D1" stroke-width="2" stroke-linecap="round" stroke-linejoin="round"/>
</svg>
